<svg xmlns="http://www.w3.org/2000/svg" width="100%" height="100%" viewBox="0 0 300 233">
  <path fill="#D3ECFB" d="M0 70.9h79v53.4H0z"/>
  <path fill="#0A0A0A" d="M77 73.8v48.5H3V73.8h74m3-3H0v54.4h80V71z"/>
  <path fill="#D3ECFB" stroke="#000" stroke-width="3" d="M4 123.7h72L40.2 92.3 4 123.7z"/>
  <path fill="#D3ECFB" stroke="#000" stroke-width="3" d="M4 72.4h72l-35.8 31.4L4 72.4z"/>
  <path fill="#009FE3" fill-rule="nonzero" d="M21 63.3a1.3 1.3 0 01-.6 0l-.3-.3-.2-.1a1.7 1.7 0 01-.5-.9v-.3a1.6 1.6 0 01.8-1.4l.2-.1.4-.1H21.6a1.4 1.4 0 01.6.4l.2.3.1.3.1.3v1l-.2.2-.3.3c-.3.3-.7.5-1.1.4zm-1.6-7.7c0-.9.7-1.6 1.7-1.6.9 0 1.6.7 1.6 1.6 0 1-.7 1.7-1.6 1.7-.5 0-1-.2-1.2-.5-.4-.3-.5-.7-.5-1.2zm0-6c0-1 .7-1.7 1.7-1.7.9 0 1.6.8 1.6 1.7 0 .9-.7 1.6-1.6 1.6-1 0-1.7-.7-1.7-1.6zm0-6.1c0-.9.7-1.6 1.7-1.6.9 0 1.6.7 1.6 1.6 0 1-.7 1.6-1.6 1.6-1 0-1.7-.7-1.7-1.6zm0-6c0-1 .7-1.7 1.7-1.7.9 0 1.6.7 1.6 1.6 0 1-.7 1.7-1.6 1.7-1 0-1.7-.8-1.7-1.7zm0-6.1c0-1 .7-1.7 1.7-1.7.9 0 1.6.8 1.6 1.7 0 .8-.7 1.6-1.6 1.6-1 0-1.7-.8-1.7-1.6zm65.8-.3c0-.9.8-1.6 1.7-1.6.5 0 .9.2 1.2.5.3.3.5.7.5 1.1 0 1-.7 1.7-1.7 1.7-.4 0-.9-.2-1.2-.5-.3-.3-.5-.7-.5-1.2zm-6.6 0c0-.9.8-1.6 1.7-1.6 1 0 1.7.7 1.7 1.6 0 1-.8 1.7-1.7 1.7-.4 0-.9-.2-1.2-.5-.3-.3-.5-.7-.5-1.2zm-6.5 0c0-.9.7-1.6 1.6-1.6.5 0 1 .2 1.2.5.3.3.5.7.5 1.1 0 .5-.2.9-.5 1.2-.3.3-.7.5-1.2.5-.9 0-1.6-.8-1.7-1.7zm-6.6 0c0-.9.7-1.6 1.7-1.6.9 0 1.6.7 1.6 1.6 0 1-.7 1.7-1.6 1.7-1 0-1.7-.8-1.7-1.7zm-6.6 0c0-.4.2-.8.5-1.1.3-.4.8-.5 1.2-.5 1 0 1.7.7 1.7 1.6 0 .5-.2.9-.5 1.2-.3.3-.7.5-1.2.5-.4 0-.9-.2-1.2-.5-.3-.3-.5-.7-.5-1.2zm-6.6 0c0-.9.8-1.6 1.7-1.6 1 0 1.7.7 1.7 1.6 0 1-.8 1.7-1.7 1.7-1 0-1.7-.8-1.7-1.7zm-6.6 0c0-.9.8-1.6 1.7-1.6.4 0 .9.2 1.2.5.3.3.5.7.5 1.1 0 .5-.2.9-.5 1.2-.3.3-.8.5-1.2.5-1 0-1.7-.8-1.7-1.7zm-6.6 0c0-.9.8-1.6 1.7-1.6 1 0 1.7.7 1.7 1.6 0 1-.8 1.7-1.7 1.7-1 0-1.7-.8-1.7-1.7zm-6.6 0c0-.9.8-1.6 1.7-1.6 1 0 1.7.7 1.7 1.6 0 1-.8 1.7-1.7 1.7-1 0-1.7-.8-1.7-1.7zm-6.6 0c0-.9.8-1.6 1.7-1.6 1 0 1.7.7 1.7 1.6 0 1-.8 1.7-1.7 1.7-.9 0-1.6-.8-1.7-1.7zm67.6 1.7h-.3l-.4-.1-.2-.2-.3-.2c-.3-.3-.5-.7-.5-1.1v-.4l.1-.3a1.3 1.3 0 01.4-.5l.2-.2.3-.2h1.3l.3.2a1.7 1.7 0 01.5.4l.1.3a1.5 1.5 0 01-.1 1.6l-.2.2a1.7 1.7 0 01-1 .5h-.2zm185.7 30.5h-.4c-.2 0-.4 0-.6-.2a1.7 1.7 0 01-.4-.4l-.2-.3-.1-.3v-.4-.3l.1-.3a1.5 1.5 0 01.6-.7l.3-.2h.4a1.8 1.8 0 011 0 1.6 1.6 0 011 1.2v.6a1.6 1.6 0 01-.5.9c-.4.3-.8.5-1.2.4zm-1.7-7.7c0-.9.7-1.6 1.7-1.6.9 0 1.6.7 1.6 1.6 0 1-.7 1.7-1.6 1.7-1 0-1.7-.8-1.7-1.7zm0-6c0-1 .7-1.7 1.7-1.7.9 0 1.6.8 1.6 1.7 0 .9-.7 1.6-1.6 1.6-1 0-1.7-.7-1.7-1.6zm0-6.1c0-.9.7-1.6 1.7-1.6.9 0 1.6.7 1.6 1.6 0 .9-.7 1.6-1.6 1.6-1 0-1.7-.7-1.7-1.6zm0-6c0-1 .7-1.7 1.7-1.7.9 0 1.6.7 1.6 1.6 0 1-.7 1.7-1.6 1.7-1 0-1.7-.8-1.7-1.7zm0-6.1c0-1 .7-1.7 1.7-1.7.9 0 1.6.8 1.6 1.7 0 .8-.7 1.6-1.6 1.6-1 0-1.7-.8-1.7-1.6zm-6.8-.3c0-.9.7-1.6 1.7-1.6.9 0 1.7.7 1.7 1.6 0 .5-.2.9-.5 1.2-.4.3-.8.5-1.2.5-1 0-1.7-.8-1.7-1.7zm-6.8 0c0-.4.2-.8.5-1.1.3-.4.8-.5 1.2-.5 1 0 1.7.7 1.7 1.6 0 1-.8 1.7-1.7 1.7-.4 0-.9-.2-1.2-.5-.3-.3-.5-.7-.5-1.2zm-6.8 0c0-.9.8-1.6 1.7-1.6 1 0 1.7.7 1.7 1.6 0 1-.8 1.7-1.7 1.7-1 0-1.7-.8-1.7-1.7zm-6.8 0c0-.9.8-1.6 1.7-1.6 1 0 1.7.7 1.7 1.6 0 1-.8 1.7-1.7 1.7-1 0-1.7-.8-1.7-1.7zm-6.8 0c0-.9.8-1.6 1.7-1.6 1 0 1.7.7 1.7 1.6 0 1-.8 1.7-1.7 1.7-1 0-1.7-.8-1.7-1.7zm-6.8 0c0-.9.8-1.6 1.7-1.6 1 0 1.7.7 1.7 1.6 0 1-.8 1.7-1.7 1.7-1 0-1.7-.8-1.7-1.7zm-6.8 0c0-.9.8-1.6 1.7-1.6 1 0 1.7.7 1.7 1.6 0 1-.8 1.7-1.7 1.7-1 0-1.7-.8-1.7-1.7zm-6.8 0c0-.9.8-1.6 1.7-1.6 1 0 1.7.7 1.7 1.6 0 .5-.2.9-.5 1.2-.3.3-.7.5-1.2.5-1 0-1.7-.8-1.7-1.7zm-6.8 0c0-.9.8-1.6 1.7-1.6 1 0 1.7.7 1.7 1.6 0 1-.7 1.7-1.7 1.7-.9 0-1.7-.8-1.7-1.7zm-6.8 0c0-.9.8-1.6 1.7-1.6 1 0 1.7.7 1.7 1.6 0 1-.7 1.7-1.7 1.7-.9 0-1.6-.8-1.6-1.7zm-6.7 0c0-.9.7-1.6 1.6-1.6 1 0 1.7.7 1.7 1.6 0 1-.7 1.7-1.7 1.7-.9 0-1.6-.8-1.6-1.7zm-5.2 1.7h-.3a2 2 0 01-.3-.1l-.3-.2-.3-.2a1.6 1.6 0 01-.4-1.5v-.3l.2-.3.2-.2a1.7 1.7 0 012.4 0c.3.3.5.7.5 1.2v.3l-.1.3-.1.3-.3.2c-.3.3-.7.5-1.2.5z"/>
  <path fill="#D3ECFB" d="M216.3 54h83.3v75h-83.3z"/>
  <path fill="#0A0A0A" d="M216.5 54.5h82.3v13.1h-82.3z"/>
  <path fill="#0A0A0A" d="M297 57.3v69.9h-78v-70h78m3-3.8h-84v76.7h84V53.4z"/>
  <path fill="#0A0A0A" fill-rule="nonzero" d="M239.2 74.8l-7.1 7.2-3-2.9-2.1 2.2 5.1 5.1 9.3-9.5zM239.2 92.2l-7.1 7.3-3-2.9-2.1 2.1 5.1 5.2 9.3-9.5zM239.2 109.7l-7.1 7.3-3-3-2.1 2.2 5.1 5.2 9.3-9.5z"/>
  <path fill="#FFF" fill-rule="nonzero" d="M122.5 212.1H176v15.2h-53.5z"/>
  <path fill="#1E1E1E" fill-rule="nonzero" d="M65.4 223.2V114a8 8 0 018.2-8h153.1a8 8 0 018.2 8v109.3"/>
  <path fill="#EDEDED" fill-rule="nonzero" d="M235.2 223.2h-.5V114c0-4.2-3.6-7.7-8-7.7h-153c-4.5 0-8 3.4-8 7.7v109.3H65V114a8 8 0 012.5-5.8 8.6 8.6 0 016-2.3h153.1c4.7 0 8.5 3.6 8.5 8.1v109.3z"/>
  <path fill="#2C8CC4" fill-rule="nonzero" d="M78 118.4h144v88.3H78z"/>
  <path fill="#0A0A0A" fill-rule="nonzero" d="M222.6 207H77.7v-89h145v89zm-144.4-.5h144v-88.1h-144v88.1z"/>
  <path fill="#878787" fill-rule="nonzero" d="M131.3 218.7h37.8v6.4h-37.8z"/>
  <path fill="#B2B2B2" fill-rule="nonzero" d="M165.6 222.6h-30.9c-1.8 0-3.3-2-3.5-3.7H40.4v9.8l25 2.8h169.5l25-2.8v-9.8h-90.8c-.1 1.9-1.6 3.7-3.5 3.7z"/>
  <path fill="#878787" fill-rule="nonzero" d="M40.4 228.7l25 2.8h169.5l25.1-2.8z"/>
  <path fill="#EDEDED" fill-rule="nonzero" d="M165.6 222.9h-30.9c-2 0-3.5-2-3.7-3.8H40.4v-.4h91v.2c.2 1.6 1.6 3.5 3.3 3.5h31c1.8 0 3-1.8 3.2-3.5v-.2h91v.4h-90.6c-.2 1.9-1.7 3.8-3.7 3.8z"/>
  <path fill="#1A345C" fill-rule="nonzero" d="M40.4 231.5H260v1.4H40.4z"/>
  <path fill="#009FE3" fill-rule="nonzero" d="M250.8 194c-.4 0-.8-.2-1.1-.5l-10-8.9a1.6 1.6 0 010-2.4l10-8.8c.4-.4 1-.6 1.6-.4.6.2 1 .6 1.1 1.2.2.6 0 1.2-.5 1.6l-8.6 7.6 8.6 7.7c.4.3.6.7.6 1.1 0 .5-.2.9-.5 1.2-.3.4-.7.6-1.2.6z"/>
  <path fill="#009FE3" fill-rule="nonzero" d="M250.8 185c-.5 0-.9-.1-1.2-.4a1.4 1.4 0 01-.4-.5 1.5 1.5 0 010-1.3l.2-.3.2-.2a1.7 1.7 0 012.1-.2l.3.2c.3.3.5.7.5 1.1v.4l-.1.3-.2.2-.2.3-.2.2-.3.1-.3.1h-.4zm19.6-1.6c0-.9.7-1.6 1.7-1.6.9 0 1.6.7 1.6 1.6 0 1-.7 1.7-1.6 1.7-1 0-1.7-.8-1.7-1.7zm-7.1 0c0-.9.7-1.6 1.7-1.6.9 0 1.6.7 1.6 1.6 0 1-.7 1.7-1.7 1.7-.9 0-1.6-.8-1.6-1.7zm-7.1 0c0-.9.8-1.6 1.7-1.6.4 0 .9.1 1.2.5.3.3.5.7.5 1.1 0 .5-.2.9-.5 1.2-.3.3-.7.5-1.2.5-.4 0-.9-.2-1.2-.5-.3-.3-.5-.7-.5-1.2zm23 1.7h-.4l-.3-.1-.3-.2-.2-.2a1.4 1.4 0 01-.4-.5 1.5 1.5 0 010-1.3l.1-.2.3-.3a1.7 1.7 0 01.8-.4h1l.3.2a1.7 1.7 0 01.5.5 2 2 0 01.2.5v1l-.2.3-.3.2c-.3.3-.7.5-1.1.5zm-1.7-8.4c0-1 .7-1.6 1.7-1.6.9 0 1.6.7 1.6 1.6 0 .9-.7 1.6-1.6 1.6-1 0-1.7-.7-1.7-1.6zm0-6.8c0-1 .7-1.7 1.7-1.7.9 0 1.6.8 1.6 1.7 0 .9-.7 1.6-1.6 1.6-1 0-1.7-.7-1.7-1.6zm0-6.8c0-1 .7-1.7 1.7-1.7.9 0 1.6.8 1.6 1.7 0 .9-.7 1.6-1.6 1.6-1 0-1.7-.7-1.7-1.5v-.1zm0-6.8c0-1 .7-1.6 1.7-1.6.9 0 1.6.7 1.6 1.6 0 .9-.7 1.6-1.6 1.6-1 0-1.7-.6-1.7-1.5v-.1zm0-6.8c0-1 .7-1.6 1.7-1.6.9 0 1.6.7 1.6 1.6 0 .9-.7 1.6-1.6 1.6-.9 0-1.6-.6-1.7-1.4v-.2zm0-6.8c0-.9.7-1.6 1.7-1.6.9 0 1.6.7 1.6 1.6 0 1-.7 1.6-1.6 1.6-.9 0-1.6-.6-1.7-1.4v-.2zm1.7-4.9h-.4l-.6-.2-.2-.2-.3-.3v-.3l-.2-.3v-.3-.3a1.6 1.6 0 01.3-.6 1.6 1.6 0 01.7-.6 1.7 1.7 0 011-.1 1.7 1.7 0 011.2 1l.1.3v.6a1.8 1.8 0 01-.4.9l-.3.2-.6.2h-.3zM58.6 185.1h-.4l-.3-.1-.3-.2-.2-.2-.2-.2-.2-.3-.1-.3v-.7l.1-.3.2-.2c0-.1 0-.2.2-.3l.2-.2.3-.1a2 2 0 011-.1h.3l.3.2.3.2a1.6 1.6 0 01.4.8v1l-.2.3-.3.2c-.3.3-.7.5-1.1.5zm-8-1.7c0-.9.8-1.6 1.7-1.6 1 0 1.7.7 1.7 1.6 0 1-.8 1.7-1.7 1.7-1 0-1.7-.8-1.7-1.7zm-6.2 0c0-.9.7-1.6 1.6-1.6 1 0 1.7.7 1.7 1.6 0 1-.7 1.7-1.7 1.7-.9 0-1.6-.8-1.6-1.7zm-6.3 0c0-.9.8-1.6 1.7-1.6 1 0 1.7.7 1.7 1.6 0 1-.8 1.7-1.7 1.7-1 0-1.7-.8-1.7-1.7zm-6.2 0c0-.9.7-1.6 1.6-1.6 1 0 1.7.7 1.7 1.6 0 1-.7 1.7-1.7 1.7-.9 0-1.6-.8-1.6-1.7zm-6.3 0c0-.9.8-1.6 1.7-1.6 1 0 1.7.7 1.7 1.6 0 1-.8 1.7-1.7 1.7-1 0-1.7-.8-1.7-1.7zm-4.6 1.7h-.3l-.3-.1-.3-.2-.2-.2c-.4-.3-.5-.7-.5-1.1v-.4a1.6 1.6 0 01.4-.8l.3-.2.3-.1.3-.1c.5-.1 1.1 0 1.5.4l.2.3.2.2v1.3l-.2.3-.2.2c-.3.3-.7.5-1.1.5zm-1.6-8.2c0-1 .7-1.6 1.7-1.7.9 0 1.6.8 1.6 1.7 0 .9-.7 1.6-1.6 1.6-.5 0-1-.2-1.2-.5-.4-.3-.5-.7-.5-1.1zm0-6.6c0-.4.1-.8.5-1.1.3-.3.7-.5 1.2-.5.9 0 1.6.7 1.6 1.6 0 1-.7 1.7-1.6 1.7-1 0-1.7-.8-1.7-1.7zm0-6.5c0-1 .7-1.7 1.7-1.7.9 0 1.6.8 1.6 1.7 0 .9-.7 1.6-1.6 1.6-.5 0-1-.2-1.2-.5-.4-.3-.5-.7-.5-1.1zm0-6.6c0-.9.7-1.6 1.7-1.6.9 0 1.6.7 1.6 1.6 0 1-.7 1.7-1.6 1.7-.5 0-1-.2-1.2-.5-.4-.3-.5-.7-.5-1.2zm0-6.5c0-1 .7-1.7 1.7-1.7.9 0 1.6.8 1.6 1.7 0 .9-.7 1.6-1.6 1.6-1 0-1.7-.7-1.7-1.6zm1.7-5h-.4-.3l-.3-.2-.2-.2-.3-.2-.1-.3a1.5 1.5 0 010-1.3l.1-.3a1.6 1.6 0 01.5-.4l.3-.2h.3c.6-.2 1.1 0 1.5.4l.3.2.1.3.1.3v.7a2.7 2.7 0 01-.2.6l-.3.2c-.3.3-.7.5-1.1.4z"/>
  <path fill="#009FE3" fill-rule="nonzero" d="M30.2 146.4c-.5 0-1-.2-1.2-.5l-8-8.4-7.8 8.4c-.7.6-1.7.7-2.4 0-.4-.2-.6-.6-.6-1 0-.5.2-.9.5-1.2l9.1-9.7a1.7 1.7 0 012.5 0l9.1 9.7c.7.7.6 1.7 0 2.3-.4.3-.8.4-1.2.4zM92.8 41.7c-.5 0-1-.2-1.2-.5a1.6 1.6 0 010-2.4l8.7-7.7-8.6-7.7c-.5-.4-.7-1-.5-1.5 0-.6.5-1 1-1.2.7-.2 1.3 0 1.7.3l10 8.9c.4.3.6.7.6 1.2s-.2.9-.6 1.2l-10 8.9c-.3.3-.7.5-1.1.5z"/>
  <path fill="#0B0C0C" d="M250 79.6h40v2h-40zM250 75.7h40v2h-40zM250 83.5h13v2h-13z"/>
  <path fill="#0B0C0C" d="M250 99h24v2h-24zM250 95.1h40v2h-40z"/>
  <path fill="#0B0C0C" d="M250 112.6h40v2h-40zM250 116.5h30v2h-30z"/>
  <path fill="#0B0C0C" fill-rule="nonzero" d="M168.8 62.1c16.7 0 21.2 7.6 21.2 7.7v16.6h-41V69.8c0-.1 4.5-7.7 19.8-7.7zm.8-25.2c5.5 0 10.4 4.8 10.4 10 0 6.6-5 11.4-10.4 11.4-6.7 0-11.6-4.8-11.6-11.4 0-5.2 5-10 11.6-10z"/>
  <path fill="#009FE3" d="M190 34V0h-60v34h13.8v12.6l15-12.6H190z"/>
  <path fill="#0B0C0C" fill-rule="nonzero" d="M127.4 50.5c14.6 0 18.6 6.6 18.6 6.7v14.6h-36V57.2s4-6.7 17.4-6.7zm1.2-22.3c5 0 9.4 4.3 9.4 9 0 6-4.5 10.4-9.4 10.4-6.1 0-10.6-4.4-10.6-10.3 0-4.8 4.5-9.1 10.6-9.1z"/>
  <path fill="#0B0C0C" d="M88 128.2h124v8.7H88z"/>
  <path fill="#FFF" stroke="#000" stroke-width="2" d="M89 136.9h122v70.8H89z"/>
</svg>
