<svg version="1.1" viewBox="0.0 0.0 960.0 540.0" fill="none" stroke="none" stroke-linecap="square" stroke-miterlimit="10" xmlns:xlink="http://www.w3.org/1999/xlink" xmlns="http://www.w3.org/2000/svg"><clipPath id="gd873225442_0_45.0"><path d="m0 0l960.0 0l0 540.0l-960.0 0l0 -540.0z" clip-rule="nonzero"/></clipPath><g clip-path="url(#gd873225442_0_45.0)"><path fill="#ffffff" d="m0 0l960.0 0l0 540.0l-960.0 0z" fill-rule="evenodd"/><path fill="#cfe2f3" d="m161.83727 87.9038l0 0c0 -25.301235 20.510712 -45.81194 45.81195 -45.81194l572.3761 0c12.150085 0 23.802551 4.826603 32.39392 13.418007c8.591431 8.591404 13.41803 20.243855 13.41803 32.393932l0 183.24225c0 25.301239 -20.510742 45.81195 -45.81195 45.81195l-572.3761 0c-25.301239 0 -45.81195 -20.510712 -45.81195 -45.81195z" fill-rule="evenodd"/><path stroke="#0b5394" stroke-width="1.0" stroke-linejoin="round" stroke-linecap="butt" d="m161.83727 87.9038l0 0c0 -25.301235 20.510712 -45.81194 45.81195 -45.81194l572.3761 0c12.150085 0 23.802551 4.826603 32.39392 13.418007c8.591431 8.591404 13.41803 20.243855 13.41803 32.393932l0 183.24225c0 25.301239 -20.510742 45.81195 -45.81195 45.81195l-572.3761 0c-25.301239 0 -45.81195 -20.510712 -45.81195 -45.81195z" fill-rule="evenodd"/><path fill="#cfe2f3" d="m178.61679 148.86415l0 0c0 -17.522705 14.204971 -31.727669 31.727676 -31.727669l179.53679 0c8.414703 0 16.484772 3.3427277 22.434845 9.292816c5.9501038 5.950096 9.292816 14.020149 9.292816 22.434853l0 126.906876c0 17.522705 -14.204956 31.727661 -31.727661 31.727661l-179.53679 0l0 0c-17.522705 0 -31.727676 -14.204956 -31.727676 -31.727661z" fill-rule="evenodd"/><path stroke="#0b5394" stroke-width="1.0" stroke-linejoin="round" stroke-linecap="butt" d="m178.61679 148.86415l0 0c0 -17.522705 14.204971 -31.727669 31.727676 -31.727669l179.53679 0c8.414703 0 16.484772 3.3427277 22.434845 9.292816c5.9501038 5.950096 9.292816 14.020149 9.292816 22.434853l0 126.906876c0 17.522705 -14.204956 31.727661 -31.727661 31.727661l-179.53679 0l0 0c-17.522705 0 -31.727676 -14.204956 -31.727676 -31.727661z" fill-rule="evenodd"/><path fill="#cfe2f3" d="m445.7034 148.86415l0 0c0 -17.522705 14.204987 -31.727669 31.727692 -31.727669l301.99347 0c8.414673 0 16.484741 3.3427277 22.434875 9.292816c5.9500732 5.950096 9.292786 14.020149 9.292786 22.434853l0 126.906876c0 17.522705 -14.204956 31.727661 -31.727661 31.727661l-301.99347 0c-17.522705 0 -31.727692 -14.204956 -31.727692 -31.727661z" fill-rule="evenodd"/><path stroke="#0b5394" stroke-width="1.0" stroke-linejoin="round" stroke-linecap="butt" d="m445.7034 148.86415l0 0c0 -17.522705 14.204987 -31.727669 31.727692 -31.727669l301.99347 0c8.414673 0 16.484741 3.3427277 22.434875 9.292816c5.9500732 5.950096 9.292786 14.020149 9.292786 22.434853l0 126.906876c0 17.522705 -14.204956 31.727661 -31.727661 31.727661l-301.99347 0c-17.522705 0 -31.727692 -14.204956 -31.727692 -31.727661z" fill-rule="evenodd"/><path fill="#ead1dc" d="m161.83727 360.94815l0 0c0 -17.522705 14.204971 -31.727692 31.727676 -31.727692l600.5447 0c8.414673 0 16.484741 3.342743 22.434814 9.292847c5.9501343 5.9500732 9.292847 14.020142 9.292847 22.434845l0 126.90686c0 17.522705 -14.204956 31.727692 -31.727661 31.727692l-600.5447 0c-17.522705 0 -31.727676 -14.204987 -31.727676 -31.727692z" fill-rule="evenodd"/><path stroke="#741b47" stroke-width="1.0" stroke-linejoin="round" stroke-linecap="butt" d="m161.83727 360.94815l0 0c0 -17.522705 14.204971 -31.727692 31.727676 -31.727692l600.5447 0c8.414673 0 16.484741 3.342743 22.434814 9.292847c5.9501343 5.9500732 9.292847 14.020142 9.292847 22.434845l0 126.90686c0 17.522705 -14.204956 31.727692 -31.727661 31.727692l-600.5447 0c-17.522705 0 -31.727676 -14.204987 -31.727676 -31.727692z" fill-rule="evenodd"/><path fill="#9fc5e8" d="m239.74934 205.2336l120.72441 0l0 84.85039l-120.72441 0z" fill-rule="evenodd"/><path stroke="#626a6e" stroke-width="1.0" stroke-linejoin="round" stroke-linecap="butt" d="m239.74934 205.2336l120.72441 0l0 84.85039l-120.72441 0z" fill-rule="evenodd"/><path fill="#000000" d="m259.16232 256.1988l-4.5625 -17.1875l2.328125 0l2.609375 11.265625q0.421875 1.765625 0.734375 3.515625q0.65625 -2.75 0.765625 -3.171875l3.28125 -11.609375l2.734375 0l2.46875 8.703125q0.921875 3.234375 1.328125 6.078125q0.328125 -1.625 0.859375 -3.734375l2.6875 -11.046875l2.296875 0l-4.71875 17.1875l-2.1875 0l-3.625 -13.09375q-0.453125 -1.640625 -0.53125 -2.015625q-0.28125 1.1875 -0.515625 2.015625l-3.640625 13.09375l-2.3125 0zm27.46875 -4.015625l2.171875 0.28125q-0.515625 1.90625 -1.90625 2.96875q-1.390625 1.046875 -3.5625 1.046875q-2.734375 0 -4.34375 -1.671875q-1.59375 -1.6875 -1.59375 -4.734375q0 -3.140625 1.609375 -4.875q1.625 -1.734375 4.203125 -1.734375q2.5 0 4.078125 1.703125q1.59375 1.703125 1.59375 4.78125q0 0.1875 -0.015625 0.5625l-9.28125 0q0.109375 2.046875 1.15625 3.140625q1.046875 1.09375 2.609375 1.09375q1.15625 0 1.96875 -0.609375q0.828125 -0.609375 1.3125 -1.953125zm-6.9375 -3.40625l6.953125 0q-0.140625 -1.5625 -0.796875 -2.359375q-1.0 -1.21875 -2.609375 -1.21875q-1.453125 0 -2.453125 0.984375q-0.984375 0.96875 -1.09375 2.59375zm13.707031 7.421875l-1.953125 0l0 -17.1875l2.109375 0l0 6.140625q1.328125 -1.6875 3.40625 -1.6875q1.140625 0 2.171875 0.46875q1.03125 0.46875 1.6875 1.3125q0.65625 0.828125 1.03125 2.015625q0.375 1.171875 0.375 2.53125q0 3.1875 -1.578125 4.9375q-1.578125 1.75 -3.796875 1.75q-2.203125 0 -3.453125 -1.84375l0 1.5625zm-0.03125 -6.3125q0 2.234375 0.609375 3.234375q1.0 1.625 2.703125 1.625q1.375 0 2.375 -1.203125q1.015625 -1.203125 1.015625 -3.578125q0 -2.4375 -0.96875 -3.59375q-0.953125 -1.171875 -2.328125 -1.171875q-1.390625 0 -2.40625 1.203125q-1.0 1.203125 -1.0 3.484375zm9.816406 6.3125l6.59375 -17.1875l2.453125 0l7.03125 17.1875l-2.59375 0l-2.0 -5.203125l-7.1875 0l-1.890625 5.203125l-2.40625 0zm4.953125 -7.0625l5.828125 0l-1.796875 -4.75q-0.8125 -2.171875 -1.21875 -3.5625q-0.328125 1.65625 -0.921875 3.28125l-1.890625 5.03125zm12.6640625 11.828125l0 -17.21875l1.921875 0l0 1.625q0.6875 -0.953125 1.53125 -1.421875q0.859375 -0.484375 2.078125 -0.484375q1.59375 0 2.8125 0.828125q1.21875 0.8125 1.84375 2.3125q0.625 1.5 0.625 3.28125q0 1.90625 -0.6875 3.4375q-0.6875 1.53125 -2.0 2.34375q-1.296875 0.8125 -2.734375 0.8125q-1.0625 0 -1.90625 -0.4375q-0.828125 -0.453125 -1.375 -1.140625l0 6.0625l-2.109375 0zm1.921875 -10.921875q0 2.40625 0.96875 3.5625q0.96875 1.140625 2.359375 1.140625q1.40625 0 2.40625 -1.1875q1.0 -1.1875 1.0 -3.6875q0 -2.375 -0.984375 -3.5625q-0.96875 -1.1875 -2.328125 -1.1875q-1.359375 0 -2.390625 1.265625q-1.03125 1.25 -1.03125 3.65625zm11.425781 10.921875l0 -17.21875l1.921875 0l0 1.625q0.6875 -0.953125 1.53125 -1.421875q0.859375 -0.484375 2.078125 -0.484375q1.59375 0 2.8125 0.828125q1.21875 0.8125 1.84375 2.3125q0.625 1.5 0.625 3.28125q0 1.90625 -0.6875 3.4375q-0.6875 1.53125 -2.0 2.34375q-1.296875 0.8125 -2.734375 0.8125q-1.0625 0 -1.90625 -0.4375q-0.828125 -0.453125 -1.375 -1.140625l0 6.0625l-2.109375 0zm1.921875 -10.921875q0 2.40625 0.96875 3.5625q0.96875 1.140625 2.359375 1.140625q1.40625 0 2.40625 -1.1875q1.0 -1.1875 1.0 -3.6875q0 -2.375 -0.984375 -3.5625q-0.96875 -1.1875 -2.328125 -1.1875q-1.359375 0 -2.390625 1.265625q-1.03125 1.25 -1.03125 3.65625z" fill-rule="nonzero"/><path fill="#9fc5e8" d="m479.9987 205.2336l120.724396 0l0 84.85039l-120.724396 0z" fill-rule="evenodd"/><path stroke="#626a6e" stroke-width="1.0" stroke-linejoin="round" stroke-linecap="butt" d="m479.9987 205.2336l120.724396 0l0 84.85039l-120.724396 0z" fill-rule="evenodd"/><path fill="#000000" d="m524.4644 250.16754l2.28125 0.578125q-0.71875 2.796875 -2.578125 4.28125q-1.859375 1.46875 -4.546875 1.46875q-2.765625 0 -4.515625 -1.125q-1.734375 -1.140625 -2.640625 -3.28125q-0.90625 -2.15625 -0.90625 -4.609375q0 -2.6875 1.015625 -4.6875q1.03125 -2.0 2.921875 -3.03125q1.890625 -1.03125 4.171875 -1.03125q2.578125 0 4.328125 1.3125q1.765625 1.3125 2.453125 3.6875l-2.234375 0.53125q-0.609375 -1.875 -1.75 -2.734375q-1.125 -0.859375 -2.84375 -0.859375q-1.984375 0 -3.3125 0.953125q-1.328125 0.953125 -1.875 2.546875q-0.53125 1.59375 -0.53125 3.296875q0 2.1875 0.625 3.828125q0.640625 1.640625 1.984375 2.453125q1.359375 0.796875 2.921875 0.796875q1.921875 0 3.234375 -1.09375q1.328125 -1.109375 1.796875 -3.28125zm4.7539062 6.03125l0 -17.1875l2.109375 0l0 17.1875l-2.109375 0zm4.5976562 -6.21875q0 -3.46875 1.921875 -5.125q1.609375 -1.390625 3.921875 -1.390625q2.5625 0 4.1875 1.6875q1.625 1.6875 1.625 4.640625q0 2.40625 -0.71875 3.78125q-0.71875 1.375 -2.09375 2.140625q-1.375 0.765625 -3.0 0.765625q-2.625 0 -4.234375 -1.671875q-1.609375 -1.6875 -1.609375 -4.828125zm2.171875 0q0 2.390625 1.03125 3.578125q1.046875 1.1875 2.640625 1.1875q1.5625 0 2.609375 -1.1875q1.046875 -1.203125 1.046875 -3.65625q0 -2.3125 -1.0625 -3.5q-1.046875 -1.1875 -2.59375 -1.1875q-1.59375 0 -2.640625 1.1875q-1.03125 1.1875 -1.03125 3.578125zm20.082031 1.65625l2.078125 0.265625q-0.34375 2.15625 -1.75 3.375q-1.390625 1.203125 -3.4375 1.203125q-2.546875 0 -4.109375 -1.671875q-1.546875 -1.671875 -1.546875 -4.78125q0 -2.015625 0.671875 -3.53125q0.671875 -1.515625 2.03125 -2.265625q1.359375 -0.765625 2.96875 -0.765625q2.03125 0 3.3125 1.03125q1.296875 1.03125 1.65625 2.90625l-2.046875 0.328125q-0.296875 -1.265625 -1.046875 -1.890625q-0.734375 -0.640625 -1.796875 -0.640625q-1.59375 0 -2.59375 1.15625q-0.984375 1.140625 -0.984375 3.609375q0 2.5 0.953125 3.640625q0.96875 1.140625 2.515625 1.140625q1.234375 0 2.0625 -0.765625q0.84375 -0.765625 1.0625 -2.34375zm3.890625 4.5625l0 -17.1875l2.109375 0l0 9.796875l5.0 -5.0625l2.71875 0l-4.75 4.625l5.234375 7.828125l-2.59375 0l-4.125 -6.359375l-1.484375 1.421875l0 4.9375l-2.109375 0z" fill-rule="nonzero"/><path fill="#9fc5e8" d="m659.1142 205.2336l120.724365 0l0 84.85039l-120.724365 0z" fill-rule="evenodd"/><path stroke="#626a6e" stroke-width="1.0" stroke-linejoin="round" stroke-linecap="butt" d="m659.1142 205.2336l120.724365 0l0 84.85039l-120.724365 0z" fill-rule="evenodd"/><path fill="#000000" d="m685.88654 256.1988l-4.5625 -17.1875l2.328125 0l2.609375 11.265625q0.421875 1.765625 0.734375 3.515625q0.65625 -2.75 0.765625 -3.171875l3.28125 -11.609375l2.734375 0l2.46875 8.703125q0.921875 3.234375 1.328125 6.078125q0.328125 -1.625 0.859375 -3.734375l2.6875 -11.046875l2.296875 0l-4.71875 17.1875l-2.1875 0l-3.625 -13.09375q-0.453125 -1.640625 -0.53125 -2.015625q-0.28125 1.1875 -0.515625 2.015625l-3.640625 13.09375l-2.3125 0zm18.15625 -6.21875q0 -3.46875 1.921875 -5.125q1.609375 -1.390625 3.921875 -1.390625q2.5625 0 4.1875 1.6875q1.625 1.6875 1.625 4.640625q0 2.40625 -0.71875 3.78125q-0.71875 1.375 -2.09375 2.140625q-1.375 0.765625 -3.0 0.765625q-2.625 0 -4.234375 -1.671875q-1.609375 -1.6875 -1.609375 -4.828125zm2.171875 0q0 2.390625 1.03125 3.578125q1.046875 1.1875 2.640625 1.1875q1.5625 0 2.609375 -1.1875q1.046875 -1.203125 1.046875 -3.65625q0 -2.3125 -1.0625 -3.5q-1.046875 -1.1875 -2.59375 -1.1875q-1.59375 0 -2.640625 1.1875q-1.03125 1.1875 -1.03125 3.578125zm11.941406 6.21875l0 -12.453125l1.890625 0l0 1.890625q0.734375 -1.328125 1.34375 -1.75q0.625 -0.421875 1.359375 -0.421875q1.0625 0 2.171875 0.6875l-0.734375 1.953125q-0.765625 -0.453125 -1.546875 -0.453125q-0.6875 0 -1.25 0.421875q-0.546875 0.40625 -0.78125 1.140625q-0.34375 1.125 -0.34375 2.46875l0 6.515625l-2.109375 0zm8.0234375 0l0 -17.1875l2.109375 0l0 9.796875l5.0 -5.0625l2.71875 0l-4.75 4.625l5.234375 7.828125l-2.59375 0l-4.125 -6.359375l-1.484375 1.421875l0 4.9375l-2.109375 0zm20.515625 -4.015625l2.171875 0.28125q-0.515625 1.90625 -1.90625 2.96875q-1.390625 1.046875 -3.5625 1.046875q-2.734375 0 -4.34375 -1.671875q-1.59375 -1.6875 -1.59375 -4.734375q0 -3.140625 1.609375 -4.875q1.625 -1.734375 4.203125 -1.734375q2.5 0 4.078125 1.703125q1.59375 1.703125 1.59375 4.78125q0 0.1875 -0.015625 0.5625l-9.28125 0q0.109375 2.046875 1.15625 3.140625q1.046875 1.09375 2.609375 1.09375q1.15625 0 1.96875 -0.609375q0.828125 -0.609375 1.3125 -1.953125zm-6.9375 -3.40625l6.953125 0q-0.140625 -1.5625 -0.796875 -2.359375q-1.0 -1.21875 -2.609375 -1.21875q-1.453125 0 -2.453125 0.984375q-0.984375 0.96875 -1.09375 2.59375zm11.738281 7.421875l0 -12.453125l1.890625 0l0 1.890625q0.734375 -1.328125 1.34375 -1.75q0.625 -0.421875 1.359375 -0.421875q1.0625 0 2.171875 0.6875l-0.734375 1.953125q-0.765625 -0.453125 -1.546875 -0.453125q-0.6875 0 -1.25 0.421875q-0.546875 0.40625 -0.78125 1.140625q-0.34375 1.125 -0.34375 2.46875l0 6.515625l-2.109375 0z" fill-rule="nonzero"/><path fill="#d5a6bd" d="m202.11417 417.00525l144.81891 0l0 84.8504l-144.81891 0z" fill-rule="evenodd"/><path stroke="#626a6e" stroke-width="1.0" stroke-linejoin="round" stroke-linecap="butt" d="m202.11417 417.00525l144.81891 0l0 84.8504l-144.81891 0z" fill-rule="evenodd"/><path fill="#000000" d="m245.73456 467.97046l0 -17.1875l7.609375 0q2.296875 0 3.484375 0.46875q1.203125 0.46875 1.921875 1.640625q0.71875 1.171875 0.71875 2.578125q0 1.828125 -1.1875 3.09375q-1.1875 1.25 -3.65625 1.59375q0.90625 0.421875 1.375 0.84375q1.0 0.921875 1.890625 2.296875l2.984375 4.671875l-2.859375 0l-2.28125 -3.578125q-0.984375 -1.546875 -1.640625 -2.359375q-0.640625 -0.828125 -1.15625 -1.15625q-0.5 -0.328125 -1.03125 -0.453125q-0.390625 -0.078125 -1.265625 -0.078125l-2.640625 0l0 7.625l-2.265625 0zm2.265625 -9.59375l4.890625 0q1.5625 0 2.4375 -0.328125q0.875 -0.328125 1.328125 -1.03125q0.46875 -0.703125 0.46875 -1.546875q0 -1.21875 -0.890625 -2.0q-0.875 -0.78125 -2.796875 -0.78125l-5.4375 0l0 5.6875zm23.285156 5.578125l2.171875 0.28125q-0.515625 1.90625 -1.90625 2.96875q-1.390625 1.046875 -3.5625 1.046875q-2.734375 0 -4.34375 -1.671875q-1.59375 -1.6875 -1.59375 -4.734375q0 -3.140625 1.609375 -4.875q1.625 -1.734375 4.203125 -1.734375q2.5 0 4.078125 1.703125q1.59375 1.703125 1.59375 4.78125q0 0.1875 -0.015625 0.5625l-9.28125 0q0.109375 2.046875 1.15625 3.140625q1.046875 1.09375 2.609375 1.09375q1.15625 0 1.96875 -0.609375q0.828125 -0.609375 1.3125 -1.953125zm-6.9375 -3.40625l6.953125 0q-0.140625 -1.5625 -0.796875 -2.359375q-1.0 -1.21875 -2.609375 -1.21875q-1.453125 0 -2.453125 0.984375q-0.984375 0.96875 -1.09375 2.59375zm19.832031 7.421875l0 -1.578125q-1.1875 1.859375 -3.484375 1.859375q-1.484375 0 -2.734375 -0.8125q-1.25 -0.828125 -1.9375 -2.296875q-0.671875 -1.46875 -0.671875 -3.390625q0 -1.859375 0.609375 -3.375q0.625 -1.515625 1.859375 -2.328125q1.25 -0.8125 2.78125 -0.8125q1.125 0 2.0 0.484375q0.890625 0.46875 1.4375 1.234375l0 -6.171875l2.09375 0l0 17.1875l-1.953125 0zm-6.671875 -6.21875q0 2.390625 1.0 3.578125q1.015625 1.1875 2.390625 1.1875q1.390625 0 2.34375 -1.125q0.96875 -1.140625 0.96875 -3.453125q0 -2.5625 -0.984375 -3.75q-0.984375 -1.203125 -2.421875 -1.203125q-1.40625 0 -2.359375 1.15625q-0.9375 1.140625 -0.9375 3.609375zm11.957031 -8.53125l0 -2.4375l2.109375 0l0 2.4375l-2.109375 0zm0 14.75l0 -12.453125l2.109375 0l0 12.453125l-2.109375 0zm4.4726562 -3.71875l2.09375 -0.328125q0.171875 1.25 0.96875 1.921875q0.8125 0.671875 2.25 0.671875q1.453125 0 2.15625 -0.59375q0.703125 -0.59375 0.703125 -1.390625q0 -0.71875 -0.625 -1.125q-0.421875 -0.28125 -2.15625 -0.71875q-2.3125 -0.578125 -3.21875 -1.0q-0.890625 -0.4375 -1.359375 -1.1875q-0.453125 -0.765625 -0.453125 -1.671875q0 -0.828125 0.375 -1.53125q0.390625 -0.71875 1.046875 -1.1875q0.484375 -0.359375 1.328125 -0.609375q0.859375 -0.265625 1.828125 -0.265625q1.46875 0 2.578125 0.421875q1.109375 0.421875 1.625 1.15625q0.53125 0.71875 0.734375 1.921875l-2.0625 0.28125q-0.140625 -0.96875 -0.8125 -1.5q-0.671875 -0.546875 -1.90625 -0.546875q-1.453125 0 -2.078125 0.484375q-0.625 0.484375 -0.625 1.125q0 0.40625 0.265625 0.734375q0.25 0.34375 0.8125 0.5625q0.3125 0.125 1.859375 0.546875q2.234375 0.59375 3.109375 0.984375q0.890625 0.375 1.390625 1.109375q0.515625 0.71875 0.515625 1.796875q0 1.046875 -0.625 1.984375q-0.609375 0.9375 -1.765625 1.453125q-1.15625 0.5 -2.625 0.5q-2.421875 0 -3.703125 -1.0q-1.265625 -1.015625 -1.625 -3.0z" fill-rule="nonzero"/><path fill="#d5a6bd" d="m406.3819 417.00525l154.04724 0l0 84.8504l-154.04724 0z" fill-rule="evenodd"/><path stroke="#626a6e" stroke-width="1.0" stroke-linejoin="round" stroke-linecap="butt" d="m406.3819 417.00525l154.04724 0l0 84.8504l-154.04724 0z" fill-rule="evenodd"/><path fill="#000000" d="m419.8977 467.97046l0 -17.1875l6.46875 0q1.71875 0 2.625 0.171875q1.265625 0.203125 2.109375 0.796875q0.859375 0.59375 1.375 1.671875q0.53125 1.0625 0.53125 2.328125q0 2.203125 -1.40625 3.71875q-1.390625 1.515625 -5.03125 1.515625l-4.40625 0l0 6.984375l-2.265625 0zm2.265625 -9.015625l4.4375 0q2.203125 0 3.125 -0.8125q0.9375 -0.828125 0.9375 -2.3125q0 -1.078125 -0.546875 -1.84375q-0.546875 -0.765625 -1.4375 -1.015625q-0.578125 -0.15625 -2.125 -0.15625l-4.390625 0l0 6.140625zm12.6796875 2.796875q0 -3.46875 1.921875 -5.125q1.609375 -1.390625 3.921875 -1.390625q2.5625 0 4.1875 1.6875q1.625 1.6875 1.625 4.640625q0 2.40625 -0.71875 3.78125q-0.71875 1.375 -2.09375 2.140625q-1.375 0.765625 -3.0 0.765625q-2.625 0 -4.234375 -1.671875q-1.609375 -1.6875 -1.609375 -4.828125zm2.171875 0q0 2.390625 1.03125 3.578125q1.046875 1.1875 2.640625 1.1875q1.5625 0 2.609375 -1.1875q1.046875 -1.203125 1.046875 -3.65625q0 -2.3125 -1.0625 -3.5q-1.046875 -1.1875 -2.59375 -1.1875q-1.59375 0 -2.640625 1.1875q-1.03125 1.1875 -1.03125 3.578125zm11.113281 2.5l2.09375 -0.328125q0.171875 1.25 0.96875 1.921875q0.8125 0.671875 2.25 0.671875q1.453125 0 2.15625 -0.59375q0.703125 -0.59375 0.703125 -1.390625q0 -0.71875 -0.625 -1.125q-0.421875 -0.28125 -2.15625 -0.71875q-2.3125 -0.578125 -3.21875 -1.0q-0.890625 -0.4375 -1.359375 -1.1875q-0.453125 -0.765625 -0.453125 -1.671875q0 -0.828125 0.375 -1.53125q0.390625 -0.71875 1.046875 -1.1875q0.484375 -0.359375 1.328125 -0.609375q0.859375 -0.265625 1.828125 -0.265625q1.46875 0 2.578125 0.421875q1.109375 0.421875 1.625 1.15625q0.53125 0.71875 0.734375 1.921875l-2.0625 0.28125q-0.140625 -0.96875 -0.8125 -1.5q-0.671875 -0.546875 -1.90625 -0.546875q-1.453125 0 -2.078125 0.484375q-0.625 0.484375 -0.625 1.125q0 0.40625 0.265625 0.734375q0.25 0.34375 0.8125 0.5625q0.3125 0.125 1.859375 0.546875q2.234375 0.59375 3.109375 0.984375q0.890625 0.375 1.390625 1.109375q0.515625 0.71875 0.515625 1.796875q0 1.046875 -0.625 1.984375q-0.609375 0.9375 -1.765625 1.453125q-1.15625 0.5 -2.625 0.5q-2.421875 0 -3.703125 -1.0q-1.265625 -1.015625 -1.625 -3.0zm17.453125 1.828125l0.3125 1.859375q-0.890625 0.203125 -1.59375 0.203125q-1.15625 0 -1.796875 -0.359375q-0.625 -0.375 -0.890625 -0.96875q-0.25 -0.59375 -0.25 -2.484375l0 -7.171875l-1.546875 0l0 -1.640625l1.546875 0l0 -3.078125l2.09375 -1.265625l0 4.34375l2.125 0l0 1.640625l-2.125 0l0 7.28125q0 0.90625 0.109375 1.171875q0.125 0.25 0.375 0.40625q0.25 0.140625 0.71875 0.140625q0.34375 0 0.921875 -0.078125zm1.6835938 2.921875l2.046875 0.3125q0.125 0.9375 0.71875 1.375q0.78125 0.59375 2.140625 0.59375q1.46875 0 2.265625 -0.59375q0.796875 -0.578125 1.078125 -1.640625q0.15625 -0.640625 0.140625 -2.703125q-1.375 1.625 -3.4375 1.625q-2.5625 0 -3.96875 -1.84375q-1.40625 -1.859375 -1.40625 -4.453125q0 -1.78125 0.640625 -3.28125q0.640625 -1.515625 1.859375 -2.328125q1.234375 -0.828125 2.890625 -0.828125q2.203125 0 3.625 1.78125l0 -1.5l1.953125 0l0 10.765625q0 2.90625 -0.59375 4.109375q-0.59375 1.21875 -1.875 1.921875q-1.28125 0.703125 -3.15625 0.703125q-2.234375 0 -3.609375 -1.0q-1.359375 -1.0 -1.3125 -3.015625zm1.734375 -7.484375q0 2.453125 0.96875 3.578125q0.984375 1.125 2.453125 1.125q1.453125 0 2.4375 -1.109375q0.984375 -1.125 0.984375 -3.515625q0 -2.28125 -1.015625 -3.4375q-1.015625 -1.171875 -2.453125 -1.171875q-1.40625 0 -2.390625 1.140625q-0.984375 1.140625 -0.984375 3.390625zm11.972656 6.453125l0 -12.453125l1.890625 0l0 1.890625q0.734375 -1.328125 1.34375 -1.75q0.625 -0.421875 1.359375 -0.421875q1.0625 0 2.171875 0.6875l-0.734375 1.953125q-0.765625 -0.453125 -1.546875 -0.453125q-0.6875 0 -1.25 0.421875q-0.546875 0.40625 -0.78125 1.140625q-0.34375 1.125 -0.34375 2.46875l0 6.515625l-2.109375 0zm16.539062 -4.015625l2.171875 0.28125q-0.515625 1.90625 -1.90625 2.96875q-1.390625 1.046875 -3.5625 1.046875q-2.734375 0 -4.34375 -1.671875q-1.59375 -1.6875 -1.59375 -4.734375q0 -3.140625 1.609375 -4.875q1.625 -1.734375 4.203125 -1.734375q2.5 0 4.078125 1.703125q1.59375 1.703125 1.59375 4.78125q0 0.1875 -0.015625 0.5625l-9.28125 0q0.109375 2.046875 1.15625 3.140625q1.046875 1.09375 2.609375 1.09375q1.15625 0 1.96875 -0.609375q0.828125 -0.609375 1.3125 -1.953125zm-6.9375 -3.40625l6.953125 0q-0.140625 -1.5625 -0.796875 -2.359375q-1.0 -1.21875 -2.609375 -1.21875q-1.453125 0 -2.453125 0.984375q-0.984375 0.96875 -1.09375 2.59375zm11.253906 1.90625l2.140625 -0.1875q0.15625 1.28125 0.703125 2.109375q0.5625 0.828125 1.734375 1.34375q1.171875 0.5 2.640625 0.5q1.296875 0 2.296875 -0.375q1.0 -0.390625 1.484375 -1.0625q0.484375 -0.6875 0.484375 -1.484375q0 -0.796875 -0.46875 -1.40625q-0.46875 -0.609375 -1.546875 -1.015625q-0.6875 -0.265625 -3.0625 -0.828125q-2.359375 -0.578125 -3.3125 -1.078125q-1.234375 -0.640625 -1.84375 -1.59375q-0.59375 -0.96875 -0.59375 -2.140625q0 -1.3125 0.734375 -2.4375q0.75 -1.125 2.15625 -1.703125q1.421875 -0.59375 3.15625 -0.59375q1.90625 0 3.359375 0.609375q1.46875 0.609375 2.25 1.8125q0.796875 1.1875 0.84375 2.703125l-2.171875 0.171875q-0.171875 -1.640625 -1.1875 -2.46875q-1.015625 -0.828125 -3.0 -0.828125q-2.0625 0 -3.015625 0.765625q-0.9375 0.75 -0.9375 1.8125q0 0.921875 0.671875 1.515625q0.65625 0.609375 3.421875 1.234375q2.78125 0.625 3.8125 1.09375q1.5 0.6875 2.203125 1.75q0.71875 1.0625 0.71875 2.4375q0 1.375 -0.78125 2.59375q-0.78125 1.203125 -2.25 1.890625q-1.46875 0.671875 -3.3125 0.671875q-2.328125 0 -3.90625 -0.671875q-1.578125 -0.6875 -2.484375 -2.046875q-0.890625 -1.375 -0.9375 -3.09375zm29.804688 3.671875q1.578125 1.09375 2.921875 1.59375l-0.671875 1.59375q-1.859375 -0.671875 -3.6875 -2.125q-1.921875 1.078125 -4.21875 1.078125q-2.34375 0 -4.25 -1.125q-1.890625 -1.125 -2.921875 -3.15625q-1.015625 -2.046875 -1.015625 -4.609375q0 -2.546875 1.03125 -4.625q1.03125 -2.09375 2.9375 -3.171875q1.90625 -1.09375 4.265625 -1.09375q2.375 0 4.28125 1.140625q1.90625 1.125 2.90625 3.15625q1.015625 2.03125 1.015625 4.578125q0 2.125 -0.65625 3.828125q-0.640625 1.6875 -1.9375 2.9375zm-5.0 -2.90625q1.96875 0.546875 3.234375 1.640625q2.015625 -1.828125 2.015625 -5.5q0 -2.078125 -0.71875 -3.640625q-0.703125 -1.5625 -2.078125 -2.421875q-1.359375 -0.859375 -3.0625 -0.859375q-2.53125 0 -4.21875 1.75q-1.671875 1.734375 -1.671875 5.1875q0 3.359375 1.65625 5.15625q1.65625 1.78125 4.234375 1.78125q1.21875 0 2.296875 -0.453125q-1.0625 -0.6875 -2.25 -0.984375l0.5625 -1.65625zm10.558594 4.75l0 -17.1875l2.265625 0l0 15.15625l8.46875 0l0 2.03125l-10.734375 0z" fill-rule="nonzero"/><path fill="#000000" fill-opacity="0.0" d="m204.2546 61.666668l381.7638 0l0 42.015743l-381.7638 0z" fill-rule="evenodd"/><path fill="#000000" d="m214.89522 88.58666l0 -13.5625l4.59375 0q1.59375 0 2.609375 0.578125q1.015625 0.5625 1.5 1.546875q0.5 0.96875 0.5 2.15625q0 1.203125 -0.5 2.1875q-0.484375 0.984375 -1.5 1.5625q-1.0 0.578125 -2.59375 0.578125l-3.28125 0l0 -1.453125l3.234375 0q1.09375 0 1.75 -0.375q0.671875 -0.390625 0.96875 -1.03125q0.296875 -0.640625 0.296875 -1.46875q0 -0.8125 -0.296875 -1.453125q-0.296875 -0.640625 -0.96875 -1.0q-0.671875 -0.375 -1.78125 -0.375l-2.890625 0l0 12.109375l-1.640625 0zm14.62706 0.234375q-0.96875 0 -1.765625 -0.359375q-0.78125 -0.375 -1.25 -1.0625q-0.453125 -0.703125 -0.453125 -1.703125q0 -0.875 0.34375 -1.421875q0.34375 -0.546875 0.921875 -0.859375q0.578125 -0.3125 1.265625 -0.46875q0.703125 -0.15625 1.421875 -0.25q0.921875 -0.109375 1.5 -0.171875q0.578125 -0.0625 0.84375 -0.21875q0.28125 -0.15625 0.28125 -0.53125l0 -0.046875q0 -0.984375 -0.546875 -1.53125q-0.53125 -0.546875 -1.609375 -0.546875q-1.109375 0 -1.75 0.5q-0.640625 0.484375 -0.890625 1.046875l-1.484375 -0.53125q0.390625 -0.921875 1.046875 -1.4375q0.671875 -0.53125 1.46875 -0.734375q0.796875 -0.21875 1.5625 -0.21875q0.484375 0 1.125 0.125q0.640625 0.109375 1.234375 0.46875q0.609375 0.359375 1.0 1.078125q0.40625 0.71875 0.40625 1.9375l0 6.703125l-1.5625 0l0 -1.375l-0.078125 0q-0.171875 0.328125 -0.546875 0.703125q-0.359375 0.375 -0.984375 0.640625q-0.609375 0.265625 -1.5 0.265625zm0.25 -1.40625q0.921875 0 1.5625 -0.359375q0.640625 -0.359375 0.96875 -0.9375q0.328125 -0.578125 0.328125 -1.21875l0 -1.421875q-0.109375 0.109375 -0.453125 0.21875q-0.328125 0.09375 -0.765625 0.15625q-0.421875 0.0625 -0.828125 0.125q-0.40625 0.046875 -0.65625 0.078125q-0.609375 0.078125 -1.140625 0.265625q-0.53125 0.171875 -0.859375 0.515625q-0.3125 0.34375 -0.3125 0.9375q0 0.8125 0.609375 1.234375q0.609375 0.40625 1.546875 0.40625zm10.270782 1.40625q-0.96875 0 -1.765625 -0.359375q-0.78125 -0.375 -1.25 -1.0625q-0.453125 -0.703125 -0.453125 -1.703125q0 -0.875 0.34375 -1.421875q0.34375 -0.546875 0.921875 -0.859375q0.578125 -0.3125 1.265625 -0.46875q0.703125 -0.15625 1.421875 -0.25q0.921875 -0.109375 1.5 -0.171875q0.578125 -0.0625 0.84375 -0.21875q0.28125 -0.15625 0.28125 -0.53125l0 -0.046875q0 -0.984375 -0.546875 -1.53125q-0.53125 -0.546875 -1.609375 -0.546875q-1.109375 0 -1.75 0.5q-0.640625 0.484375 -0.890625 1.046875l-1.484375 -0.53125q0.390625 -0.921875 1.046875 -1.4375q0.671875 -0.53125 1.46875 -0.734375q0.796875 -0.21875 1.5625 -0.21875q0.484375 0 1.125 0.125q0.640625 0.109375 1.234375 0.46875q0.609375 0.359375 1.0 1.078125q0.40625 0.71875 0.40625 1.9375l0 6.703125l-1.5625 0l0 -1.375l-0.078125 0q-0.171875 0.328125 -0.546875 0.703125q-0.359375 0.375 -0.984375 0.640625q-0.609375 0.265625 -1.5 0.265625zm0.25 -1.40625q0.921875 0 1.5625 -0.359375q0.640625 -0.359375 0.96875 -0.9375q0.328125 -0.578125 0.328125 -1.21875l0 -1.421875q-0.109375 0.109375 -0.453125 0.21875q-0.328125 0.09375 -0.765625 0.15625q-0.421875 0.0625 -0.828125 0.125q-0.40625 0.046875 -0.65625 0.078125q-0.609375 0.078125 -1.140625 0.265625q-0.53125 0.171875 -0.859375 0.515625q-0.3125 0.34375 -0.3125 0.9375q0 0.8125 0.609375 1.234375q0.609375 0.40625 1.546875 0.40625zm14.911407 -9.0q-0.125 -1.015625 -0.96875 -1.5625q-0.84375 -0.5625 -2.078125 -0.5625q-0.90625 0 -1.578125 0.296875q-0.671875 0.28125 -1.046875 0.796875q-0.375 0.515625 -0.375 1.15625q0 0.546875 0.265625 0.9375q0.265625 0.390625 0.671875 0.640625q0.40625 0.25 0.859375 0.421875q0.453125 0.15625 0.828125 0.25l1.375 0.375q0.53125 0.140625 1.1875 0.390625q0.65625 0.234375 1.25 0.65625q0.609375 0.421875 1.0 1.078125q0.390625 0.65625 0.390625 1.609375q0 1.109375 -0.578125 2.0q-0.578125 0.875 -1.671875 1.40625q-1.09375 0.515625 -2.65625 0.515625q-1.453125 0 -2.515625 -0.46875q-1.0625 -0.46875 -1.671875 -1.3125q-0.609375 -0.84375 -0.6875 -1.953125l1.6875 0q0.078125 0.765625 0.53125 1.265625q0.453125 0.5 1.140625 0.75q0.703125 0.234375 1.515625 0.234375q0.9375 0 1.6875 -0.296875q0.75 -0.3125 1.1875 -0.859375q0.4375 -0.5625 0.4375 -1.296875q0 -0.6875 -0.375 -1.109375q-0.375 -0.421875 -1.0 -0.6875q-0.609375 -0.265625 -1.328125 -0.46875l-1.671875 -0.46875q-1.59375 -0.453125 -2.515625 -1.296875q-0.921875 -0.859375 -0.921875 -2.234375q0 -1.140625 0.609375 -1.984375q0.625 -0.859375 1.671875 -1.328125q1.046875 -0.46875 2.34375 -0.46875q1.3125 0 2.328125 0.46875q1.03125 0.46875 1.625 1.28125q0.609375 0.796875 0.640625 1.828125l-1.59375 0zm10.286591 10.171875l-1.71875 0l4.96875 -13.5625l1.703125 0l4.984375 13.5625l-1.71875 0l-4.0625 -11.421875l-0.109375 0l-4.046875 11.421875zm0.625 -5.296875l6.953125 0l0 1.453125l-6.953125 0l0 -1.453125zm11.223724 9.109375l0 -13.984375l1.5 0l0 1.609375l0.1875 0q0.171875 -0.265625 0.484375 -0.671875q0.3125 -0.421875 0.890625 -0.75q0.578125 -0.328125 1.5625 -0.328125q1.296875 0 2.265625 0.640625q0.984375 0.640625 1.53125 1.828125q0.5625 1.171875 0.5625 2.78125q0 1.625 -0.5625 2.8125q-0.546875 1.171875 -1.515625 1.828125q-0.96875 0.640625 -2.25 0.640625q-0.984375 0 -1.578125 -0.328125q-0.578125 -0.328125 -0.90625 -0.75q-0.3125 -0.421875 -0.484375 -0.703125l-0.125 0l0 5.375l-1.5625 0zm1.53125 -8.90625q0 1.15625 0.328125 2.046875q0.34375 0.875 0.984375 1.375q0.65625 0.484375 1.609375 0.484375q0.96875 0 1.625 -0.515625q0.671875 -0.53125 1.0 -1.40625q0.328125 -0.890625 0.328125 -1.984375q0 -1.0625 -0.328125 -1.921875q-0.3125 -0.875 -0.984375 -1.375q-0.65625 -0.515625 -1.640625 -0.515625q-0.96875 0 -1.625 0.484375q-0.640625 0.484375 -0.96875 1.34375q-0.328125 0.84375 -0.328125 1.984375zm9.837555 8.90625l0 -13.984375l1.5 0l0 1.609375l0.1875 0q0.171875 -0.265625 0.484375 -0.671875q0.3125 -0.421875 0.890625 -0.75q0.578125 -0.328125 1.5625 -0.328125q1.296875 0 2.265625 0.640625q0.984375 0.640625 1.53125 1.828125q0.5625 1.171875 0.5625 2.78125q0 1.625 -0.5625 2.8125q-0.546875 1.171875 -1.515625 1.828125q-0.96875 0.640625 -2.25 0.640625q-0.984375 0 -1.578125 -0.328125q-0.578125 -0.328125 -0.90625 -0.75q-0.3125 -0.421875 -0.484375 -0.703125l-0.125 0l0 5.375l-1.5625 0zm1.53125 -8.90625q0 1.15625 0.328125 2.046875q0.34375 0.875 0.984375 1.375q0.65625 0.484375 1.609375 0.484375q0.96875 0 1.625 -0.515625q0.671875 -0.53125 1.0 -1.40625q0.328125 -0.890625 0.328125 -1.984375q0 -1.0625 -0.328125 -1.921875q-0.3125 -0.875 -0.984375 -1.375q-0.65625 -0.515625 -1.640625 -0.515625q-0.96875 0 -1.625 0.484375q-0.640625 0.484375 -0.96875 1.34375q-0.328125 0.84375 -0.328125 1.984375zm11.400055 -8.46875l0 13.5625l-1.5625 0l0 -13.5625l1.5625 0zm2.8630981 13.5625l0 -10.171875l1.5625 0l0 10.171875l-1.5625 0zm0.78125 -11.875q-0.453125 0 -0.78125 -0.3125q-0.328125 -0.3125 -0.328125 -0.75q0 -0.4375 0.328125 -0.75q0.328125 -0.3125 0.78125 -0.3125q0.46875 0 0.796875 0.3125q0.328125 0.3125 0.328125 0.75q0 0.4375 -0.328125 0.75q-0.328125 0.3125 -0.796875 0.3125zm7.7693787 12.09375q-1.421875 0 -2.46875 -0.671875q-1.03125 -0.6875 -1.59375 -1.875q-0.546875 -1.1875 -0.546875 -2.703125q0 -1.546875 0.5625 -2.734375q0.578125 -1.203125 1.609375 -1.875q1.03125 -0.671875 2.40625 -0.671875q1.078125 0 1.9375 0.40625q0.859375 0.390625 1.40625 1.109375q0.5625 0.71875 0.6875 1.671875l-1.5625 0q-0.171875 -0.703125 -0.796875 -1.234375q-0.609375 -0.546875 -1.640625 -0.546875q-0.90625 0 -1.59375 0.484375q-0.6875 0.46875 -1.078125 1.328125q-0.375 0.859375 -0.375 2.0q0 1.1875 0.375 2.0625q0.375 0.875 1.0625 1.359375q0.6875 0.484375 1.609375 0.484375q0.609375 0 1.109375 -0.203125q0.5 -0.21875 0.84375 -0.609375q0.34375 -0.40625 0.484375 -0.96875l1.5625 0q-0.125 0.90625 -0.65625 1.625q-0.515625 0.71875 -1.375 1.140625q-0.84375 0.421875 -1.96875 0.421875zm9.274139 0.015625q-0.96875 0 -1.765625 -0.359375q-0.78125 -0.375 -1.25 -1.0625q-0.453125 -0.703125 -0.453125 -1.703125q0 -0.875 0.34375 -1.421875q0.34375 -0.546875 0.921875 -0.859375q0.578125 -0.3125 1.265625 -0.46875q0.703125 -0.15625 1.421875 -0.25q0.921875 -0.109375 1.5 -0.171875q0.578125 -0.0625 0.84375 -0.21875q0.28125 -0.15625 0.28125 -0.53125l0 -0.046875q0 -0.984375 -0.546875 -1.53125q-0.53125 -0.546875 -1.609375 -0.546875q-1.109375 0 -1.75 0.5q-0.640625 0.484375 -0.890625 1.046875l-1.484375 -0.53125q0.390625 -0.921875 1.046875 -1.4375q0.671875 -0.53125 1.46875 -0.734375q0.796875 -0.21875 1.5625 -0.21875q0.484375 0 1.125 0.125q0.640625 0.109375 1.234375 0.46875q0.609375 0.359375 1.0 1.078125q0.40625 0.71875 0.40625 1.9375l0 6.703125l-1.5625 0l0 -1.375l-0.078125 0q-0.171875 0.328125 -0.546875 0.703125q-0.359375 0.375 -0.984375 0.640625q-0.609375 0.265625 -1.5 0.265625zm0.25 -1.40625q0.921875 0 1.5625 -0.359375q0.640625 -0.359375 0.96875 -0.9375q0.328125 -0.578125 0.328125 -1.21875l0 -1.421875q-0.109375 0.109375 -0.453125 0.21875q-0.328125 0.09375 -0.765625 0.15625q-0.421875 0.0625 -0.828125 0.125q-0.40625 0.046875 -0.65625 0.078125q-0.609375 0.078125 -1.140625 0.265625q-0.53125 0.171875 -0.859375 0.515625q-0.3125 0.34375 -0.3125 0.9375q0 0.8125 0.609375 1.234375q0.609375 0.40625 1.546875 0.40625zm11.708282 -9.0l0 1.328125l-5.28125 0l0 -1.328125l5.28125 0zm-3.734375 -2.4375l1.5625 0l0 9.6875q0 0.671875 0.1875 1.0q0.203125 0.328125 0.5 0.4375q0.3125 0.109375 0.65625 0.109375q0.265625 0 0.421875 -0.03125q0.171875 -0.03125 0.265625 -0.046875l0.328125 1.40625q-0.15625 0.046875 -0.453125 0.109375q-0.28125 0.0625 -0.71875 0.0625q-0.65625 0 -1.296875 -0.28125q-0.625 -0.28125 -1.046875 -0.859375q-0.40625 -0.59375 -0.40625 -1.46875l0 -10.125zm6.0966797 12.609375l0 -10.171875l1.5625 0l0 10.171875l-1.5625 0zm0.78125 -11.875q-0.453125 0 -0.78125 -0.3125q-0.328125 -0.3125 -0.328125 -0.75q0 -0.4375 0.328125 -0.75q0.328125 -0.3125 0.78125 -0.3125q0.46875 0 0.796875 0.3125q0.328125 0.3125 0.328125 0.75q0 0.4375 -0.328125 0.75q-0.328125 0.3125 -0.796875 0.3125zm7.7693787 12.09375q-1.375 0 -2.421875 -0.65625q-1.03125 -0.65625 -1.609375 -1.828125q-0.578125 -1.1875 -0.578125 -2.765625q0 -1.59375 0.578125 -2.78125q0.578125 -1.1875 1.609375 -1.84375q1.046875 -0.65625 2.421875 -0.65625q1.375 0 2.40625 0.65625q1.046875 0.65625 1.625 1.84375q0.578125 1.1875 0.578125 2.78125q0 1.578125 -0.578125 2.765625q-0.578125 1.171875 -1.625 1.828125q-1.03125 0.65625 -2.40625 0.65625zm0 -1.40625q1.046875 0 1.71875 -0.53125q0.6875 -0.546875 1.0 -1.421875q0.328125 -0.875 0.328125 -1.890625q0 -1.03125 -0.328125 -1.90625q-0.3125 -0.875 -1.0 -1.421875q-0.671875 -0.546875 -1.71875 -0.546875q-1.046875 0 -1.71875 0.546875q-0.671875 0.546875 -1.0 1.421875q-0.328125 0.875 -0.328125 1.90625q0 1.015625 0.328125 1.890625q0.328125 0.875 1.0 1.421875q0.671875 0.53125 1.71875 0.53125zm8.56778 -4.9375l0 6.125l-1.5625 0l0 -10.171875l1.5 0l0 1.578125l0.140625 0q0.359375 -0.765625 1.078125 -1.234375q0.734375 -0.484375 1.890625 -0.484375q1.03125 0 1.796875 0.421875q0.78125 0.421875 1.203125 1.28125q0.4375 0.84375 0.4375 2.140625l0 6.46875l-1.5625 0l0 -6.359375q0 -1.203125 -0.625 -1.875q-0.625 -0.671875 -1.703125 -0.671875q-0.75 0 -1.34375 0.328125q-0.578125 0.328125 -0.921875 0.953125q-0.328125 0.609375 -0.328125 1.5zm16.55893 -1.765625l-1.40625 0.390625q-0.125 -0.34375 -0.390625 -0.671875q-0.25 -0.34375 -0.6875 -0.5625q-0.4375 -0.21875 -1.125 -0.21875q-0.9375 0 -1.5625 0.421875q-0.609375 0.421875 -0.609375 1.078125q0 0.59375 0.421875 0.9375q0.421875 0.328125 1.328125 0.546875l1.515625 0.375q1.359375 0.328125 2.03125 1.015625q0.671875 0.671875 0.671875 1.75q0 0.859375 -0.5 1.5625q-0.5 0.6875 -1.40625 1.09375q-0.890625 0.390625 -2.078125 0.390625q-1.546875 0 -2.578125 -0.671875q-1.015625 -0.6875 -1.28125 -1.984375l1.484375 -0.375q0.203125 0.828125 0.796875 1.234375q0.59375 0.40625 1.5625 0.40625q1.09375 0 1.734375 -0.453125q0.640625 -0.46875 0.640625 -1.125q0 -0.53125 -0.375 -0.890625q-0.359375 -0.375 -1.125 -0.546875l-1.703125 -0.390625q-1.390625 -0.34375 -2.046875 -1.03125q-0.65625 -0.703125 -0.65625 -1.765625q0 -0.859375 0.484375 -1.515625q0.484375 -0.65625 1.328125 -1.03125q0.859375 -0.390625 1.921875 -0.390625q1.515625 0 2.375 0.671875q0.875 0.65625 1.234375 1.75z" fill-rule="nonzero"/><path fill="#000000" fill-opacity="0.0" d="m204.2546 352.06036l770.01575 0l0 42.015747l-770.01575 0z" fill-rule="evenodd"/><path fill="#000000" d="m214.89522 378.98038l0 -13.5625l4.59375 0q1.59375 0 2.609375 0.578125q1.015625 0.5625 1.5 1.546875q0.5 0.96875 0.5 2.15625q0 1.203125 -0.5 2.1875q-0.484375 0.984375 -1.5 1.5625q-1.0 0.578125 -2.59375 0.578125l-3.28125 0l0 -1.453125l3.234375 0q1.09375 0 1.75 -0.375q0.671875 -0.390625 0.96875 -1.03125q0.296875 -0.640625 0.296875 -1.46875q0 -0.8125 -0.296875 -1.453125q-0.296875 -0.640625 -0.96875 -1.0q-0.671875 -0.375 -1.78125 -0.375l-2.890625 0l0 12.109375l-1.640625 0zm14.62706 0.234375q-0.96875 0 -1.765625 -0.359375q-0.78125 -0.375 -1.25 -1.0625q-0.453125 -0.703125 -0.453125 -1.703125q0 -0.875 0.34375 -1.421875q0.34375 -0.546875 0.921875 -0.859375q0.578125 -0.3125 1.265625 -0.46875q0.703125 -0.15625 1.421875 -0.25q0.921875 -0.109375 1.5 -0.171875q0.578125 -0.0625 0.84375 -0.21875q0.28125 -0.15625 0.28125 -0.53125l0 -0.046875q0 -0.984375 -0.546875 -1.53125q-0.53125 -0.546875 -1.609375 -0.546875q-1.109375 0 -1.75 0.5q-0.640625 0.484375 -0.890625 1.046875l-1.484375 -0.53125q0.390625 -0.921875 1.046875 -1.4375q0.671875 -0.53125 1.46875 -0.734375q0.796875 -0.21875 1.5625 -0.21875q0.484375 0 1.125 0.125q0.640625 0.109375 1.234375 0.46875q0.609375 0.359375 1.0 1.078125q0.40625 0.71875 0.40625 1.9375l0 6.703125l-1.5625 0l0 -1.375l-0.078125 0q-0.171875 0.328125 -0.546875 0.703125q-0.359375 0.375 -0.984375 0.640625q-0.609375 0.265625 -1.5 0.265625zm0.25 -1.40625q0.921875 0 1.5625 -0.359375q0.640625 -0.359375 0.96875 -0.9375q0.328125 -0.578125 0.328125 -1.21875l0 -1.421875q-0.109375 0.109375 -0.453125 0.21875q-0.328125 0.09375 -0.765625 0.15625q-0.421875 0.0625 -0.828125 0.125q-0.40625 0.046875 -0.65625 0.078125q-0.609375 0.078125 -1.140625 0.265625q-0.53125 0.171875 -0.859375 0.515625q-0.3125 0.34375 -0.3125 0.9375q0 0.8125 0.609375 1.234375q0.609375 0.40625 1.546875 0.40625zm10.270782 1.40625q-0.96875 0 -1.765625 -0.359375q-0.78125 -0.375 -1.25 -1.0625q-0.453125 -0.703125 -0.453125 -1.703125q0 -0.875 0.34375 -1.421875q0.34375 -0.546875 0.921875 -0.859375q0.578125 -0.3125 1.265625 -0.46875q0.703125 -0.15625 1.421875 -0.25q0.921875 -0.109375 1.5 -0.171875q0.578125 -0.0625 0.84375 -0.21875q0.28125 -0.15625 0.28125 -0.53125l0 -0.046875q0 -0.984375 -0.546875 -1.53125q-0.53125 -0.546875 -1.609375 -0.546875q-1.109375 0 -1.75 0.5q-0.640625 0.484375 -0.890625 1.046875l-1.484375 -0.53125q0.390625 -0.921875 1.046875 -1.4375q0.671875 -0.53125 1.46875 -0.734375q0.796875 -0.21875 1.5625 -0.21875q0.484375 0 1.125 0.125q0.640625 0.109375 1.234375 0.46875q0.609375 0.359375 1.0 1.078125q0.40625 0.71875 0.40625 1.9375l0 6.703125l-1.5625 0l0 -1.375l-0.078125 0q-0.171875 0.328125 -0.546875 0.703125q-0.359375 0.375 -0.984375 0.640625q-0.609375 0.265625 -1.5 0.265625zm0.25 -1.40625q0.921875 0 1.5625 -0.359375q0.640625 -0.359375 0.96875 -0.9375q0.328125 -0.578125 0.328125 -1.21875l0 -1.421875q-0.109375 0.109375 -0.453125 0.21875q-0.328125 0.09375 -0.765625 0.15625q-0.421875 0.0625 -0.828125 0.125q-0.40625 0.046875 -0.65625 0.078125q-0.609375 0.078125 -1.140625 0.265625q-0.53125 0.171875 -0.859375 0.515625q-0.3125 0.34375 -0.3125 0.9375q0 0.8125 0.609375 1.234375q0.609375 0.40625 1.546875 0.40625zm14.911407 -9.0q-0.125 -1.015625 -0.96875 -1.5625q-0.84375 -0.5625 -2.078125 -0.5625q-0.90625 0 -1.578125 0.296875q-0.671875 0.28125 -1.046875 0.796875q-0.375 0.515625 -0.375 1.15625q0 0.546875 0.265625 0.9375q0.265625 0.390625 0.671875 0.640625q0.40625 0.25 0.859375 0.421875q0.453125 0.15625 0.828125 0.25l1.375 0.375q0.53125 0.140625 1.1875 0.390625q0.65625 0.234375 1.25 0.65625q0.609375 0.421875 1.0 1.078125q0.390625 0.65625 0.390625 1.609375q0 1.109375 -0.578125 2.0q-0.578125 0.875 -1.671875 1.40625q-1.09375 0.515625 -2.65625 0.515625q-1.453125 0 -2.515625 -0.46875q-1.0625 -0.46875 -1.671875 -1.3125q-0.609375 -0.84375 -0.6875 -1.953125l1.6875 0q0.078125 0.765625 0.53125 1.265625q0.453125 0.5 1.140625 0.75q0.703125 0.234375 1.515625 0.234375q0.9375 0 1.6875 -0.296875q0.75 -0.3125 1.1875 -0.859375q0.4375 -0.5625 0.4375 -1.296875q0 -0.6875 -0.375 -1.109375q-0.375 -0.421875 -1.0 -0.6875q-0.609375 -0.265625 -1.328125 -0.46875l-1.671875 -0.46875q-1.59375 -0.453125 -2.515625 -1.296875q-0.921875 -0.859375 -0.921875 -2.234375q0 -1.140625 0.609375 -1.984375q0.625 -0.859375 1.671875 -1.328125q1.046875 -0.46875 2.34375 -0.46875q1.3125 0 2.328125 0.46875q1.03125 0.46875 1.625 1.28125q0.609375 0.796875 0.640625 1.828125l-1.59375 0zm9.724091 10.171875l0 -13.5625l4.75 0q1.40625 0 2.328125 0.484375q0.921875 0.484375 1.375 1.3125q0.453125 0.8125 0.453125 1.796875q0 0.875 -0.3125 1.453125q-0.296875 0.5625 -0.796875 0.90625q-0.5 0.328125 -1.09375 0.484375l0 0.125q0.625 0.046875 1.25 0.453125q0.640625 0.390625 1.0625 1.140625q0.421875 0.734375 0.421875 1.796875q0 1.03125 -0.46875 1.84375q-0.453125 0.8125 -1.453125 1.296875q-1.0 0.46875 -2.609375 0.46875l-4.90625 0zm1.640625 -1.453125l3.265625 0q1.609375 0 2.28125 -0.625q0.6875 -0.625 0.6875 -1.53125q0 -0.6875 -0.359375 -1.265625q-0.34375 -0.59375 -1.0 -0.9375q-0.640625 -0.359375 -1.53125 -0.359375l-3.34375 0l0 4.71875zm0 -6.15625l3.046875 0q0.75 0 1.34375 -0.28125q0.609375 -0.296875 0.953125 -0.828125q0.359375 -0.53125 0.359375 -1.25q0 -0.890625 -0.625 -1.515625q-0.625 -0.625 -1.96875 -0.625l-3.109375 0l0 4.5zm13.277954 7.84375q-0.96875 0 -1.765625 -0.359375q-0.78125 -0.375 -1.25 -1.0625q-0.453125 -0.703125 -0.453125 -1.703125q0 -0.875 0.34375 -1.421875q0.34375 -0.546875 0.921875 -0.859375q0.578125 -0.3125 1.265625 -0.46875q0.703125 -0.15625 1.421875 -0.25q0.921875 -0.109375 1.5 -0.171875q0.578125 -0.0625 0.84375 -0.21875q0.28125 -0.15625 0.28125 -0.53125l0 -0.046875q0 -0.984375 -0.546875 -1.53125q-0.53125 -0.546875 -1.609375 -0.546875q-1.109375 0 -1.75 0.5q-0.640625 0.484375 -0.890625 1.046875l-1.484375 -0.53125q0.390625 -0.921875 1.046875 -1.4375q0.671875 -0.53125 1.46875 -0.734375q0.796875 -0.21875 1.5625 -0.21875q0.484375 0 1.125 0.125q0.640625 0.109375 1.234375 0.46875q0.609375 0.359375 1.0 1.078125q0.40625 0.71875 0.40625 1.9375l0 6.703125l-1.5625 0l0 -1.375l-0.078125 0q-0.171875 0.328125 -0.546875 0.703125q-0.359375 0.375 -0.984375 0.640625q-0.609375 0.265625 -1.5 0.265625zm0.25 -1.40625q0.921875 0 1.5625 -0.359375q0.640625 -0.359375 0.96875 -0.9375q0.328125 -0.578125 0.328125 -1.21875l0 -1.421875q-0.109375 0.109375 -0.453125 0.21875q-0.328125 0.09375 -0.765625 0.15625q-0.421875 0.0625 -0.828125 0.125q-0.40625 0.046875 -0.65625 0.078125q-0.609375 0.078125 -1.140625 0.265625q-0.53125 0.171875 -0.859375 0.515625q-0.3125 0.34375 -0.3125 0.9375q0 0.8125 0.609375 1.234375q0.609375 0.40625 1.546875 0.40625zm11.411407 1.390625q-1.421875 0 -2.46875 -0.671875q-1.03125 -0.6875 -1.59375 -1.875q-0.546875 -1.1875 -0.546875 -2.703125q0 -1.546875 0.5625 -2.734375q0.578125 -1.203125 1.609375 -1.875q1.03125 -0.671875 2.40625 -0.671875q1.078125 0 1.9375 0.40625q0.859375 0.390625 1.40625 1.109375q0.5625 0.71875 0.6875 1.671875l-1.5625 0q-0.171875 -0.703125 -0.796875 -1.234375q-0.609375 -0.546875 -1.640625 -0.546875q-0.90625 0 -1.59375 0.484375q-0.6875 0.46875 -1.078125 1.328125q-0.375 0.859375 -0.375 2.0q0 1.1875 0.375 2.0625q0.375 0.875 1.0625 1.359375q0.6875 0.484375 1.609375 0.484375q0.609375 0 1.109375 -0.203125q0.5 -0.21875 0.84375 -0.609375q0.34375 -0.40625 0.484375 -0.96875l1.5625 0q-0.125 0.90625 -0.65625 1.625q-0.515625 0.71875 -1.375 1.140625q-0.84375 0.421875 -1.96875 0.421875zm7.74292 -3.921875l-0.03125 -1.9375l0.328125 0l4.4375 -4.53125l1.9375 0l-4.734375 4.796875l-0.140625 0l-1.796875 1.671875zm-1.453125 3.703125l0 -13.5625l1.5625 0l0 13.5625l-1.5625 0zm6.453125 0l-3.96875 -5.03125l1.109375 -1.09375l4.859375 6.125l-2.0 0zm3.6966248 0l0 -10.171875l1.5625 0l0 10.171875l-1.5625 0zm0.78125 -11.875q-0.453125 0 -0.78125 -0.3125q-0.328125 -0.3125 -0.328125 -0.75q0 -0.4375 0.328125 -0.75q0.328125 -0.3125 0.78125 -0.3125q0.46875 0 0.796875 0.3125q0.328125 0.3125 0.328125 0.75q0 0.4375 -0.328125 0.75q-0.328125 0.3125 -0.796875 0.3125zm5.2068787 5.75l0 6.125l-1.5625 0l0 -10.171875l1.5 0l0 1.578125l0.140625 0q0.359375 -0.765625 1.078125 -1.234375q0.734375 -0.484375 1.890625 -0.484375q1.03125 0 1.796875 0.421875q0.78125 0.421875 1.203125 1.28125q0.4375 0.84375 0.4375 2.140625l0 6.46875l-1.5625 0l0 -6.359375q0 -1.203125 -0.625 -1.875q-0.625 -0.671875 -1.703125 -0.671875q-0.75 0 -1.34375 0.328125q-0.578125 0.328125 -0.921875 0.953125q-0.328125 0.609375 -0.328125 1.5zm13.449524 10.15625q-1.125 0 -1.9375 -0.296875q-0.8125 -0.28125 -1.359375 -0.75q-0.53125 -0.46875 -0.859375 -1.0l1.25 -0.875q0.203125 0.28125 0.53125 0.640625q0.328125 0.359375 0.890625 0.625q0.578125 0.28125 1.484375 0.28125q1.234375 0 2.03125 -0.609375q0.8125 -0.59375 0.8125 -1.859375l0 -2.0625l-0.140625 0q-0.171875 0.265625 -0.484375 0.6875q-0.3125 0.40625 -0.90625 0.71875q-0.578125 0.3125 -1.5625 0.3125q-1.234375 0 -2.21875 -0.578125q-0.96875 -0.59375 -1.546875 -1.703125q-0.5625 -1.109375 -0.5625 -2.703125q0 -1.5625 0.546875 -2.71875q0.546875 -1.171875 1.53125 -1.8125q0.984375 -0.640625 2.265625 -0.640625q1.0 0 1.578125 0.328125q0.59375 0.328125 0.90625 0.75q0.3125 0.40625 0.484375 0.671875l0.15625 0l0 -1.609375l1.515625 0l0 10.46875q0 1.3125 -0.59375 2.125q-0.59375 0.828125 -1.59375 1.21875q-1.0 0.390625 -2.21875 0.390625zm-0.046875 -5.59375q0.9375 0 1.578125 -0.421875q0.65625 -0.4375 1.0 -1.25q0.34375 -0.8125 0.34375 -1.9375q0 -1.09375 -0.34375 -1.9375q-0.328125 -0.84375 -0.984375 -1.3125q-0.640625 -0.484375 -1.59375 -0.484375q-1.0 0 -1.65625 0.515625q-0.65625 0.5 -0.984375 1.34375q-0.328125 0.84375 -0.328125 1.875q0 1.0625 0.328125 1.875q0.34375 0.8125 1.0 1.28125q0.65625 0.453125 1.640625 0.453125zm20.194092 -8.609375q-0.125 -1.015625 -0.96875 -1.5625q-0.84375 -0.5625 -2.078125 -0.5625q-0.90625 0 -1.578125 0.296875q-0.671875 0.28125 -1.046875 0.796875q-0.375 0.515625 -0.375 1.15625q0 0.546875 0.265625 0.9375q0.265625 0.390625 0.671875 0.640625q0.40625 0.25 0.859375 0.421875q0.453125 0.15625 0.828125 0.25l1.375 0.375q0.53125 0.140625 1.1875 0.390625q0.65625 0.234375 1.25 0.65625q0.609375 0.421875 1.0 1.078125q0.390625 0.65625 0.390625 1.609375q0 1.109375 -0.578125 2.0q-0.578125 0.875 -1.671875 1.40625q-1.09375 0.515625 -2.65625 0.515625q-1.453125 0 -2.515625 -0.46875q-1.0625 -0.46875 -1.671875 -1.3125q-0.609375 -0.84375 -0.6875 -1.953125l1.6875 0q0.078125 0.765625 0.53125 1.265625q0.453125 0.5 1.140625 0.75q0.703125 0.234375 1.515625 0.234375q0.9375 0 1.6875 -0.296875q0.75 -0.3125 1.1875 -0.859375q0.4375 -0.5625 0.4375 -1.296875q0 -0.6875 -0.375 -1.109375q-0.375 -0.421875 -1.0 -0.6875q-0.609375 -0.265625 -1.328125 -0.46875l-1.671875 -0.46875q-1.59375 -0.453125 -2.515625 -1.296875q-0.921875 -0.859375 -0.921875 -2.234375q0 -1.140625 0.609375 -1.984375q0.625 -0.859375 1.671875 -1.328125q1.046875 -0.46875 2.34375 -0.46875q1.3125 0 2.328125 0.46875q1.03125 0.46875 1.625 1.28125q0.609375 0.796875 0.640625 1.828125l-1.59375 0zm8.539429 10.390625q-1.46875 0 -2.546875 -0.65625q-1.0625 -0.65625 -1.640625 -1.828125q-0.5625 -1.171875 -0.5625 -2.75q0 -1.5625 0.5625 -2.75q0.578125 -1.203125 1.609375 -1.875q1.03125 -0.671875 2.40625 -0.671875q0.796875 0 1.578125 0.265625q0.78125 0.265625 1.40625 0.859375q0.640625 0.59375 1.015625 1.578125q0.375 0.96875 0.375 2.390625l0 0.65625l-7.84375 0l0 -1.34375l6.265625 0q0 -0.859375 -0.34375 -1.53125q-0.34375 -0.6875 -0.96875 -1.078125q-0.625 -0.390625 -1.484375 -0.390625q-0.921875 0 -1.609375 0.46875q-0.671875 0.453125 -1.046875 1.1875q-0.359375 0.734375 -0.359375 1.578125l0 0.90625q0 1.140625 0.390625 1.953125q0.40625 0.796875 1.125 1.21875q0.71875 0.40625 1.671875 0.40625q0.609375 0 1.109375 -0.171875q0.5 -0.1875 0.859375 -0.53125q0.375 -0.359375 0.5625 -0.890625l1.515625 0.421875q-0.234375 0.765625 -0.796875 1.34375q-0.5625 0.578125 -1.390625 0.90625q-0.828125 0.328125 -1.859375 0.328125zm6.5996704 -0.21875l0 -10.171875l1.5 0l0 1.53125l0.109375 0q0.28125 -0.75 1.0 -1.21875q0.734375 -0.46875 1.65625 -0.46875q0.171875 0 0.421875 0q0.265625 0 0.390625 0.015625l0 1.59375q-0.078125 -0.015625 -0.359375 -0.0625q-0.28125 -0.046875 -0.59375 -0.046875q-0.734375 0 -1.328125 0.3125q-0.578125 0.3125 -0.90625 0.859375q-0.328125 0.53125 -0.328125 1.21875l0 6.4375l-1.5625 0zm15.573883 -10.171875l-3.765625 10.171875l-1.578125 0l-3.765625 -10.171875l1.6875 0l2.8125 8.109375l0.109375 0l2.8125 -8.109375l1.6875 0zm2.0757751 10.171875l0 -10.171875l1.5625 0l0 10.171875l-1.5625 0zm0.78125 -11.875q-0.453125 0 -0.78125 -0.3125q-0.328125 -0.3125 -0.328125 -0.75q0 -0.4375 0.328125 -0.75q0.328125 -0.3125 0.78125 -0.3125q0.46875 0 0.796875 0.3125q0.328125 0.3125 0.328125 0.75q0 0.4375 -0.328125 0.75q-0.328125 0.3125 -0.796875 0.3125zm7.769348 12.09375q-1.421875 0 -2.46875 -0.671875q-1.03125 -0.6875 -1.59375 -1.875q-0.546875 -1.1875 -0.546875 -2.703125q0 -1.546875 0.5625 -2.734375q0.578125 -1.203125 1.609375 -1.875q1.03125 -0.671875 2.40625 -0.671875q1.078125 0 1.9375 0.40625q0.859375 0.390625 1.40625 1.109375q0.5625 0.71875 0.6875 1.671875l-1.5625 0q-0.171875 -0.703125 -0.796875 -1.234375q-0.609375 -0.546875 -1.640625 -0.546875q-0.90625 0 -1.59375 0.484375q-0.6875 0.46875 -1.078125 1.328125q-0.375 0.859375 -0.375 2.0q0 1.1875 0.375 2.0625q0.375 0.875 1.0625 1.359375q0.6875 0.484375 1.609375 0.484375q0.609375 0 1.109375 -0.203125q0.5 -0.21875 0.84375 -0.609375q0.34375 -0.40625 0.484375 -0.96875l1.5625 0q-0.125 0.90625 -0.65625 1.625q-0.515625 0.71875 -1.375 1.140625q-0.84375 0.421875 -1.96875 0.421875zm10.55542 0q-1.46875 0 -2.546875 -0.65625q-1.0625 -0.65625 -1.640625 -1.828125q-0.5625 -1.171875 -0.5625 -2.75q0 -1.5625 0.5625 -2.75q0.578125 -1.203125 1.609375 -1.875q1.03125 -0.671875 2.40625 -0.671875q0.796875 0 1.578125 0.265625q0.78125 0.265625 1.40625 0.859375q0.640625 0.59375 1.015625 1.578125q0.375 0.96875 0.375 2.390625l0 0.65625l-7.84375 0l0 -1.34375l6.265625 0q0 -0.859375 -0.34375 -1.53125q-0.34375 -0.6875 -0.96875 -1.078125q-0.625 -0.390625 -1.484375 -0.390625q-0.921875 0 -1.609375 0.46875q-0.671875 0.453125 -1.046875 1.1875q-0.359375 0.734375 -0.359375 1.578125l0 0.90625q0 1.140625 0.390625 1.953125q0.40625 0.796875 1.125 1.21875q0.71875 0.40625 1.671875 0.40625q0.609375 0 1.109375 -0.171875q0.5 -0.1875 0.859375 -0.53125q0.375 -0.359375 0.5625 -0.890625l1.515625 0.421875q-0.234375 0.765625 -0.796875 1.34375q-0.5625 0.578125 -1.390625 0.90625q-0.828125 0.328125 -1.859375 0.328125zm13.802795 -8.109375l-1.40625 0.390625q-0.125 -0.34375 -0.390625 -0.671875q-0.25 -0.34375 -0.6875 -0.5625q-0.4375 -0.21875 -1.125 -0.21875q-0.9375 0 -1.5625 0.421875q-0.609375 0.421875 -0.609375 1.078125q0 0.59375 0.421875 0.9375q0.421875 0.328125 1.328125 0.546875l1.515625 0.375q1.359375 0.328125 2.03125 1.015625q0.671875 0.671875 0.671875 1.75q0 0.859375 -0.5 1.5625q-0.5 0.6875 -1.40625 1.09375q-0.890625 0.390625 -2.078125 0.390625q-1.546875 0 -2.578125 -0.671875q-1.015625 -0.6875 -1.28125 -1.984375l1.484375 -0.375q0.203125 0.828125 0.796875 1.234375q0.59375 0.40625 1.5625 0.40625q1.09375 0 1.734375 -0.453125q0.640625 -0.46875 0.640625 -1.125q0 -0.53125 -0.375 -0.890625q-0.359375 -0.375 -1.125 -0.546875l-1.703125 -0.390625q-1.390625 -0.34375 -2.046875 -1.03125q-0.65625 -0.703125 -0.65625 -1.765625q0 -0.859375 0.484375 -1.515625q0.484375 -0.65625 1.328125 -1.03125q0.859375 -0.390625 1.921875 -0.390625q1.515625 0 2.375 0.671875q0.875 0.65625 1.234375 1.75z" fill-rule="nonzero"/><path fill="#000000" fill-opacity="0.0" d="m204.6798 141.6063l190.86613 0l0 42.015747l-190.86613 0z" fill-rule="evenodd"/><path fill="#000000" d="m215.32042 168.52629l0 -13.5625l1.640625 0l0 6.03125l7.234375 0l0 -6.03125l1.640625 0l0 13.5625l-1.640625 0l0 -6.0625l-7.234375 0l0 6.0625l-1.640625 0zm13.0724945 -12.109375l0 -1.453125l10.171875 0l0 1.453125l-4.265625 0l0 12.109375l-1.640625 0l0 -12.109375l-4.265625 0zm11.978317 0l0 -1.453125l10.171875 0l0 1.453125l-4.265625 0l0 12.109375l-1.640625 0l0 -12.109375l-4.265625 0zm12.712692 12.109375l0 -13.5625l4.59375 0q1.59375 0 2.609375 0.578125q1.015625 0.5625 1.5 1.546875q0.5 0.96875 0.5 2.15625q0 1.203125 -0.5 2.1875q-0.484375 0.984375 -1.5 1.5625q-1.0 0.578125 -2.59375 0.578125l-3.28125 0l0 -1.453125l3.234375 0q1.09375 0 1.75 -0.375q0.671875 -0.390625 0.96875 -1.03125q0.296875 -0.640625 0.296875 -1.46875q0 -0.8125 -0.296875 -1.453125q-0.296875 -0.640625 -0.96875 -1.0q-0.671875 -0.375 -1.78125 -0.375l-2.890625 0l0 12.109375l-1.640625 0zm24.514832 -10.171875q-0.125 -1.015625 -0.96875 -1.5625q-0.84375 -0.5625 -2.078125 -0.5625q-0.90625 0 -1.578125 0.296875q-0.671875 0.28125 -1.046875 0.796875q-0.375 0.515625 -0.375 1.15625q0 0.546875 0.265625 0.9375q0.265625 0.390625 0.671875 0.640625q0.40625 0.25 0.859375 0.421875q0.453125 0.15625 0.828125 0.25l1.375 0.375q0.53125 0.140625 1.1875 0.390625q0.65625 0.234375 1.25 0.65625q0.609375 0.421875 1.0 1.078125q0.390625 0.65625 0.390625 1.609375q0 1.109375 -0.578125 2.0q-0.578125 0.875 -1.671875 1.40625q-1.09375 0.515625 -2.65625 0.515625q-1.453125 0 -2.515625 -0.46875q-1.0625 -0.46875 -1.671875 -1.3125q-0.609375 -0.84375 -0.6875 -1.953125l1.6875 0q0.078125 0.765625 0.53125 1.265625q0.453125 0.5 1.140625 0.75q0.703125 0.234375 1.515625 0.234375q0.9375 0 1.6875 -0.296875q0.75 -0.3125 1.1875 -0.859375q0.4375 -0.5625 0.4375 -1.296875q0 -0.6875 -0.375 -1.109375q-0.375 -0.421875 -1.0 -0.6875q-0.609375 -0.265625 -1.328125 -0.46875l-1.671875 -0.46875q-1.59375 -0.453125 -2.515625 -1.296875q-0.921875 -0.859375 -0.921875 -2.234375q0 -1.140625 0.609375 -1.984375q0.625 -0.859375 1.671875 -1.328125q1.046875 -0.46875 2.34375 -0.46875q1.3125 0 2.328125 0.46875q1.03125 0.46875 1.625 1.28125q0.609375 0.796875 0.640625 1.828125l-1.59375 0zm8.539429 10.390625q-1.46875 0 -2.546875 -0.65625q-1.0625 -0.65625 -1.640625 -1.828125q-0.5625 -1.171875 -0.5625 -2.75q0 -1.5625 0.5625 -2.75q0.578125 -1.203125 1.609375 -1.875q1.03125 -0.671875 2.40625 -0.671875q0.796875 0 1.578125 0.265625q0.78125 0.265625 1.40625 0.859375q0.640625 0.59375 1.015625 1.578125q0.375 0.96875 0.375 2.390625l0 0.65625l-7.84375 0l0 -1.34375l6.265625 0q0 -0.859375 -0.34375 -1.53125q-0.34375 -0.6875 -0.96875 -1.078125q-0.625 -0.390625 -1.484375 -0.390625q-0.921875 0 -1.609375 0.46875q-0.671875 0.453125 -1.046875 1.1875q-0.359375 0.734375 -0.359375 1.578125l0 0.90625q0 1.140625 0.390625 1.953125q0.40625 0.796875 1.125 1.21875q0.71875 0.40625 1.671875 0.40625q0.609375 0 1.109375 -0.171875q0.5 -0.1875 0.859375 -0.53125q0.375 -0.359375 0.5625 -0.890625l1.515625 0.421875q-0.234375 0.765625 -0.796875 1.34375q-0.5625 0.578125 -1.390625 0.90625q-0.828125 0.328125 -1.859375 0.328125zm6.5996704 -0.21875l0 -10.171875l1.5 0l0 1.53125l0.109375 0q0.28125 -0.75 1.0 -1.21875q0.734375 -0.46875 1.65625 -0.46875q0.171875 0 0.421875 0q0.265625 0 0.390625 0.015625l0 1.59375q-0.078125 -0.015625 -0.359375 -0.0625q-0.28125 -0.046875 -0.59375 -0.046875q-0.734375 0 -1.328125 0.3125q-0.578125 0.3125 -0.90625 0.859375q-0.328125 0.53125 -0.328125 1.21875l0 6.4375l-1.5625 0zm15.573883 -10.171875l-3.765625 10.171875l-1.578125 0l-3.765625 -10.171875l1.6875 0l2.8125 8.109375l0.109375 0l2.8125 -8.109375l1.6875 0zm5.9701843 10.390625q-1.46875 0 -2.546875 -0.65625q-1.0625 -0.65625 -1.640625 -1.828125q-0.5625 -1.171875 -0.5625 -2.75q0 -1.5625 0.5625 -2.75q0.578125 -1.203125 1.609375 -1.875q1.03125 -0.671875 2.40625 -0.671875q0.796875 0 1.578125 0.265625q0.78125 0.265625 1.40625 0.859375q0.640625 0.59375 1.015625 1.578125q0.375 0.96875 0.375 2.390625l0 0.65625l-7.84375 0l0 -1.34375l6.265625 0q0 -0.859375 -0.34375 -1.53125q-0.34375 -0.6875 -0.96875 -1.078125q-0.625 -0.390625 -1.484375 -0.390625q-0.921875 0 -1.609375 0.46875q-0.671875 0.453125 -1.046875 1.1875q-0.359375 0.734375 -0.359375 1.578125l0 0.90625q0 1.140625 0.390625 1.953125q0.40625 0.796875 1.125 1.21875q0.71875 0.40625 1.671875 0.40625q0.609375 0 1.109375 -0.171875q0.5 -0.1875 0.859375 -0.53125q0.375 -0.359375 0.5625 -0.890625l1.515625 0.421875q-0.234375 0.765625 -0.796875 1.34375q-0.5625 0.578125 -1.390625 0.90625q-0.828125 0.328125 -1.859375 0.328125zm6.5996704 -0.21875l0 -10.171875l1.5 0l0 1.53125l0.109375 0q0.28125 -0.75 1.0 -1.21875q0.734375 -0.46875 1.65625 -0.46875q0.171875 0 0.421875 0q0.265625 0 0.390625 0.015625l0 1.59375q-0.078125 -0.015625 -0.359375 -0.0625q-0.28125 -0.046875 -0.59375 -0.046875q-0.734375 0 -1.328125 0.3125q-0.578125 0.3125 -0.90625 0.859375q-0.328125 0.53125 -0.328125 1.21875l0 6.4375l-1.5625 0z" fill-rule="nonzero"/><path fill="#000000" fill-opacity="0.0" d="m468.58005 141.60498l770.01575 0l0 42.015747l-770.01575 0z" fill-rule="evenodd"/><path fill="#000000" d="m479.22067 168.52498l0 -13.5625l4.75 0q1.40625 0 2.328125 0.484375q0.921875 0.484375 1.375 1.3125q0.453125 0.8125 0.453125 1.796875q0 0.875 -0.3125 1.453125q-0.296875 0.5625 -0.796875 0.90625q-0.5 0.328125 -1.09375 0.484375l0 0.125q0.625 0.046875 1.25 0.453125q0.640625 0.390625 1.0625 1.140625q0.421875 0.734375 0.421875 1.796875q0 1.03125 -0.46875 1.84375q-0.453125 0.8125 -1.453125 1.296875q-1.0 0.46875 -2.609375 0.46875l-4.90625 0zm1.640625 -1.453125l3.265625 0q1.609375 0 2.28125 -0.625q0.6875 -0.625 0.6875 -1.53125q0 -0.6875 -0.359375 -1.265625q-0.34375 -0.59375 -1.0 -0.9375q-0.640625 -0.359375 -1.53125 -0.359375l-3.34375 0l0 4.71875zm0 -6.15625l3.046875 0q0.75 0 1.34375 -0.28125q0.609375 -0.296875 0.953125 -0.828125q0.359375 -0.53125 0.359375 -1.25q0 -0.890625 -0.625 -1.515625q-0.625 -0.625 -1.96875 -0.625l-3.109375 0l0 4.5zm13.277954 7.84375q-0.96875 0 -1.765625 -0.359375q-0.78125 -0.375 -1.25 -1.0625q-0.453125 -0.703125 -0.453125 -1.703125q0 -0.875 0.34375 -1.421875q0.34375 -0.546875 0.921875 -0.859375q0.578125 -0.3125 1.265625 -0.46875q0.703125 -0.15625 1.421875 -0.25q0.921875 -0.109375 1.5 -0.171875q0.578125 -0.0625 0.84375 -0.21875q0.28125 -0.15625 0.28125 -0.53125l0 -0.046875q0 -0.984375 -0.546875 -1.53125q-0.53125 -0.546875 -1.609375 -0.546875q-1.109375 0 -1.75 0.5q-0.640625 0.484375 -0.890625 1.046875l-1.484375 -0.53125q0.390625 -0.921875 1.046875 -1.4375q0.671875 -0.53125 1.46875 -0.734375q0.796875 -0.21875 1.5625 -0.21875q0.484375 0 1.125 0.125q0.640625 0.109375 1.234375 0.46875q0.609375 0.359375 1.0 1.078125q0.40625 0.71875 0.40625 1.9375l0 6.703125l-1.5625 0l0 -1.375l-0.078125 0q-0.171875 0.328125 -0.546875 0.703125q-0.359375 0.375 -0.984375 0.640625q-0.609375 0.265625 -1.5 0.265625zm0.25 -1.40625q0.921875 0 1.5625 -0.359375q0.640625 -0.359375 0.96875 -0.9375q0.328125 -0.578125 0.328125 -1.21875l0 -1.421875q-0.109375 0.109375 -0.453125 0.21875q-0.328125 0.09375 -0.765625 0.15625q-0.421875 0.0625 -0.828125 0.125q-0.40625 0.046875 -0.65625 0.078125q-0.609375 0.078125 -1.140625 0.265625q-0.53125 0.171875 -0.859375 0.515625q-0.3125 0.34375 -0.3125 0.9375q0 0.8125 0.609375 1.234375q0.609375 0.40625 1.546875 0.40625zm11.411407 1.390625q-1.421875 0 -2.46875 -0.671875q-1.03125 -0.6875 -1.59375 -1.875q-0.546875 -1.1875 -0.546875 -2.703125q0 -1.546875 0.5625 -2.734375q0.578125 -1.203125 1.609375 -1.875q1.03125 -0.671875 2.40625 -0.671875q1.078125 0 1.9375 0.40625q0.859375 0.390625 1.40625 1.109375q0.5625 0.71875 0.6875 1.671875l-1.5625 0q-0.171875 -0.703125 -0.796875 -1.234375q-0.609375 -0.546875 -1.640625 -0.546875q-0.90625 0 -1.59375 0.484375q-0.6875 0.46875 -1.078125 1.328125q-0.375 0.859375 -0.375 2.0q0 1.1875 0.375 2.0625q0.375 0.875 1.0625 1.359375q0.6875 0.484375 1.609375 0.484375q0.609375 0 1.109375 -0.203125q0.5 -0.21875 0.84375 -0.609375q0.34375 -0.40625 0.484375 -0.96875l1.5625 0q-0.125 0.90625 -0.65625 1.625q-0.515625 0.71875 -1.375 1.140625q-0.84375 0.421875 -1.96875 0.421875zm7.74292 -3.921875l-0.03125 -1.9375l0.328125 0l4.4375 -4.53125l1.9375 0l-4.734375 4.796875l-0.140625 0l-1.796875 1.671875zm-1.453125 3.703125l0 -13.5625l1.5625 0l0 13.5625l-1.5625 0zm6.453125 0l-3.96875 -5.03125l1.109375 -1.09375l4.859375 6.125l-2.0 0zm7.36615 4.03125q-1.125 0 -1.9375 -0.296875q-0.8125 -0.28125 -1.359375 -0.75q-0.53125 -0.46875 -0.859375 -1.0l1.25 -0.875q0.203125 0.28125 0.53125 0.640625q0.328125 0.359375 0.890625 0.625q0.578125 0.28125 1.484375 0.28125q1.234375 0 2.03125 -0.609375q0.8125 -0.59375 0.8125 -1.859375l0 -2.0625l-0.140625 0q-0.171875 0.265625 -0.484375 0.6875q-0.3125 0.40625 -0.90625 0.71875q-0.578125 0.3125 -1.5625 0.3125q-1.234375 0 -2.21875 -0.578125q-0.96875 -0.59375 -1.546875 -1.703125q-0.5625 -1.109375 -0.5625 -2.703125q0 -1.5625 0.546875 -2.71875q0.546875 -1.171875 1.53125 -1.8125q0.984375 -0.640625 2.265625 -0.640625q1.0 0 1.578125 0.328125q0.59375 0.328125 0.90625 0.75q0.3125 0.40625 0.484375 0.671875l0.15625 0l0 -1.609375l1.515625 0l0 10.46875q0 1.3125 -0.59375 2.125q-0.59375 0.828125 -1.59375 1.21875q-1.0 0.390625 -2.21875 0.390625zm-0.046875 -5.59375q0.9375 0 1.578125 -0.421875q0.65625 -0.4375 1.0 -1.25q0.34375 -0.8125 0.34375 -1.9375q0 -1.09375 -0.34375 -1.9375q-0.328125 -0.84375 -0.984375 -1.3125q-0.640625 -0.484375 -1.59375 -0.484375q-1.0 0 -1.65625 0.515625q-0.65625 0.5 -0.984375 1.34375q-0.328125 0.84375 -0.328125 1.875q0 1.0625 0.328125 1.875q0.34375 0.8125 1.0 1.28125q0.65625 0.453125 1.640625 0.453125zm7.3218994 1.5625l0 -10.171875l1.5 0l0 1.53125l0.109375 0q0.28125 -0.75 1.0 -1.21875q0.734375 -0.46875 1.65625 -0.46875q0.171875 0 0.421875 0q0.265625 0 0.390625 0.015625l0 1.59375q-0.078125 -0.015625 -0.359375 -0.0625q-0.28125 -0.046875 -0.59375 -0.046875q-0.734375 0 -1.328125 0.3125q-0.578125 0.3125 -0.90625 0.859375q-0.328125 0.53125 -0.328125 1.21875l0 6.4375l-1.5625 0zm10.750061 0.21875q-1.375 0 -2.421875 -0.65625q-1.03125 -0.65625 -1.609375 -1.828125q-0.578125 -1.1875 -0.578125 -2.765625q0 -1.59375 0.578125 -2.78125q0.578125 -1.1875 1.609375 -1.84375q1.046875 -0.65625 2.421875 -0.65625q1.375 0 2.40625 0.65625q1.046875 0.65625 1.625 1.84375q0.578125 1.1875 0.578125 2.78125q0 1.578125 -0.578125 2.765625q-0.578125 1.171875 -1.625 1.828125q-1.03125 0.65625 -2.40625 0.65625zm0 -1.40625q1.046875 0 1.71875 -0.53125q0.6875 -0.546875 1.0 -1.421875q0.328125 -0.875 0.328125 -1.890625q0 -1.03125 -0.328125 -1.90625q-0.3125 -0.875 -1.0 -1.421875q-0.671875 -0.546875 -1.71875 -0.546875q-1.046875 0 -1.71875 0.546875q-0.671875 0.546875 -1.0 1.421875q-0.328125 0.875 -0.328125 1.90625q0 1.015625 0.328125 1.890625q0.328125 0.875 1.0 1.421875q0.671875 0.53125 1.71875 0.53125zm13.411499 -2.96875l0 -6.015625l1.5625 0l0 10.171875l-1.5625 0l0 -1.71875l-0.109375 0q-0.359375 0.765625 -1.109375 1.3125q-0.75 0.53125 -1.90625 0.53125q-0.953125 0 -1.703125 -0.40625q-0.734375 -0.421875 -1.15625 -1.265625q-0.421875 -0.859375 -0.421875 -2.15625l0 -6.46875l1.5625 0l0 6.359375q0 1.109375 0.625 1.78125q0.625 0.65625 1.59375 0.65625q0.578125 0 1.1875 -0.296875q0.609375 -0.296875 1.015625 -0.90625q0.421875 -0.625 0.421875 -1.578125zm5.995056 -1.96875l0 6.125l-1.5625 0l0 -10.171875l1.5 0l0 1.578125l0.140625 0q0.359375 -0.765625 1.078125 -1.234375q0.734375 -0.484375 1.890625 -0.484375q1.03125 0 1.796875 0.421875q0.78125 0.421875 1.203125 1.28125q0.4375 0.84375 0.4375 2.140625l0 6.46875l-1.5625 0l0 -6.359375q0 -1.203125 -0.625 -1.875q-0.625 -0.671875 -1.703125 -0.671875q-0.75 0 -1.34375 0.328125q-0.578125 0.328125 -0.921875 0.953125q-0.328125 0.609375 -0.328125 1.5zm13.199524 6.34375q-1.28125 0 -2.265625 -0.640625q-0.96875 -0.65625 -1.515625 -1.828125q-0.546875 -1.1875 -0.546875 -2.8125q0 -1.609375 0.546875 -2.78125q0.546875 -1.1875 1.53125 -1.828125q0.984375 -0.640625 2.265625 -0.640625q1.0 0 1.578125 0.328125q0.578125 0.328125 0.875 0.75q0.3125 0.40625 0.484375 0.671875l0.140625 0l0 -5.0l1.5625 0l0 13.5625l-1.515625 0l0 -1.5625l-0.1875 0q-0.171875 0.28125 -0.484375 0.703125q-0.3125 0.421875 -0.90625 0.75q-0.59375 0.328125 -1.5625 0.328125zm0.203125 -1.40625q0.9375 0 1.578125 -0.484375q0.65625 -0.5 1.0 -1.375q0.34375 -0.890625 0.34375 -2.046875q0 -1.140625 -0.34375 -1.984375q-0.328125 -0.859375 -0.984375 -1.34375q-0.640625 -0.484375 -1.59375 -0.484375q-1.0 0 -1.65625 0.515625q-0.65625 0.5 -0.984375 1.375q-0.328125 0.859375 -0.328125 1.921875q0 1.09375 0.328125 1.984375q0.34375 0.875 1.0 1.40625q0.65625 0.515625 1.640625 0.515625zm12.781128 5.0l0 -13.984375l1.5 0l0 1.609375l0.1875 0q0.171875 -0.265625 0.484375 -0.671875q0.3125 -0.421875 0.890625 -0.75q0.578125 -0.328125 1.5625 -0.328125q1.296875 0 2.265625 0.640625q0.984375 0.640625 1.53125 1.828125q0.5625 1.171875 0.5625 2.78125q0 1.625 -0.5625 2.8125q-0.546875 1.171875 -1.515625 1.828125q-0.96875 0.640625 -2.25 0.640625q-0.984375 0 -1.578125 -0.328125q-0.578125 -0.328125 -0.90625 -0.75q-0.3125 -0.421875 -0.484375 -0.703125l-0.125 0l0 5.375l-1.5625 0zm1.53125 -8.90625q0 1.15625 0.328125 2.046875q0.34375 0.875 0.984375 1.375q0.65625 0.484375 1.609375 0.484375q0.96875 0 1.625 -0.515625q0.671875 -0.53125 1.0 -1.40625q0.328125 -0.890625 0.328125 -1.984375q0 -1.0625 -0.328125 -1.921875q-0.3125 -0.875 -0.984375 -1.375q-0.65625 -0.515625 -1.640625 -0.515625q-0.96875 0 -1.625 0.484375q-0.640625 0.484375 -0.96875 1.34375q-0.328125 0.84375 -0.328125 1.984375zm9.837524 5.09375l0 -10.171875l1.5 0l0 1.53125l0.109375 0q0.28125 -0.75 1.0 -1.21875q0.734375 -0.46875 1.65625 -0.46875q0.171875 0 0.421875 0q0.265625 0 0.390625 0.015625l0 1.59375q-0.078125 -0.015625 -0.359375 -0.0625q-0.28125 -0.046875 -0.59375 -0.046875q-0.734375 0 -1.328125 0.3125q-0.578125 0.3125 -0.90625 0.859375q-0.328125 0.53125 -0.328125 1.21875l0 6.4375l-1.5625 0zm10.75 0.21875q-1.375 0 -2.421875 -0.65625q-1.03125 -0.65625 -1.609375 -1.828125q-0.578125 -1.1875 -0.578125 -2.765625q0 -1.59375 0.578125 -2.78125q0.578125 -1.1875 1.609375 -1.84375q1.046875 -0.65625 2.421875 -0.65625q1.375 0 2.40625 0.65625q1.046875 0.65625 1.625 1.84375q0.578125 1.1875 0.578125 2.78125q0 1.578125 -0.578125 2.765625q-0.578125 1.171875 -1.625 1.828125q-1.03125 0.65625 -2.40625 0.65625zm0 -1.40625q1.046875 0 1.71875 -0.53125q0.6875 -0.546875 1.0 -1.421875q0.328125 -0.875 0.328125 -1.890625q0 -1.03125 -0.328125 -1.90625q-0.3125 -0.875 -1.0 -1.421875q-0.671875 -0.546875 -1.71875 -0.546875q-1.046875 0 -1.71875 0.546875q-0.671875 0.546875 -1.0 1.421875q-0.328125 0.875 -0.328125 1.90625q0 1.015625 0.328125 1.890625q0.328125 0.875 1.0 1.421875q0.671875 0.53125 1.71875 0.53125zm11.13031 1.40625q-1.421875 0 -2.46875 -0.671875q-1.03125 -0.6875 -1.59375 -1.875q-0.546875 -1.1875 -0.546875 -2.703125q0 -1.546875 0.5625 -2.734375q0.578125 -1.203125 1.609375 -1.875q1.03125 -0.671875 2.40625 -0.671875q1.078125 0 1.9375 0.40625q0.859375 0.390625 1.40625 1.109375q0.5625 0.71875 0.6875 1.671875l-1.5625 0q-0.171875 -0.703125 -0.796875 -1.234375q-0.609375 -0.546875 -1.640625 -0.546875q-0.90625 0 -1.59375 0.484375q-0.6875 0.46875 -1.078125 1.328125q-0.375 0.859375 -0.375 2.0q0 1.1875 0.375 2.0625q0.375 0.875 1.0625 1.359375q0.6875 0.484375 1.609375 0.484375q0.609375 0 1.109375 -0.203125q0.5 -0.21875 0.84375 -0.609375q0.34375 -0.40625 0.484375 -0.96875l1.5625 0q-0.125 0.90625 -0.65625 1.625q-0.515625 0.71875 -1.375 1.140625q-0.84375 0.421875 -1.96875 0.421875zm10.55542 0q-1.46875 0 -2.546875 -0.65625q-1.0625 -0.65625 -1.640625 -1.828125q-0.5625 -1.171875 -0.5625 -2.75q0 -1.5625 0.5625 -2.75q0.578125 -1.203125 1.609375 -1.875q1.03125 -0.671875 2.40625 -0.671875q0.796875 0 1.578125 0.265625q0.78125 0.265625 1.40625 0.859375q0.640625 0.59375 1.015625 1.578125q0.375 0.96875 0.375 2.390625l0 0.65625l-7.84375 0l0 -1.34375l6.265625 0q0 -0.859375 -0.34375 -1.53125q-0.34375 -0.6875 -0.96875 -1.078125q-0.625 -0.390625 -1.484375 -0.390625q-0.921875 0 -1.609375 0.46875q-0.671875 0.453125 -1.046875 1.1875q-0.359375 0.734375 -0.359375 1.578125l0 0.90625q0 1.140625 0.390625 1.953125q0.40625 0.796875 1.125 1.21875q0.71875 0.40625 1.671875 0.40625q0.609375 0 1.109375 -0.171875q0.5 -0.1875 0.859375 -0.53125q0.375 -0.359375 0.5625 -0.890625l1.515625 0.421875q-0.234375 0.765625 -0.796875 1.34375q-0.5625 0.578125 -1.390625 0.90625q-0.828125 0.328125 -1.859375 0.328125zm13.802795 -8.109375l-1.40625 0.390625q-0.125 -0.34375 -0.390625 -0.671875q-0.25 -0.34375 -0.6875 -0.5625q-0.4375 -0.21875 -1.125 -0.21875q-0.9375 0 -1.5625 0.421875q-0.609375 0.421875 -0.609375 1.078125q0 0.59375 0.421875 0.9375q0.421875 0.328125 1.328125 0.546875l1.515625 0.375q1.359375 0.328125 2.03125 1.015625q0.671875 0.671875 0.671875 1.75q0 0.859375 -0.5 1.5625q-0.5 0.6875 -1.40625 1.09375q-0.890625 0.390625 -2.078125 0.390625q-1.546875 0 -2.578125 -0.671875q-1.015625 -0.6875 -1.28125 -1.984375l1.484375 -0.375q0.203125 0.828125 0.796875 1.234375q0.59375 0.40625 1.5625 0.40625q1.09375 0 1.734375 -0.453125q0.640625 -0.46875 0.640625 -1.125q0 -0.53125 -0.375 -0.890625q-0.359375 -0.375 -1.125 -0.546875l-1.703125 -0.390625q-1.390625 -0.34375 -2.046875 -1.03125q-0.65625 -0.703125 -0.65625 -1.765625q0 -0.859375 0.484375 -1.515625q0.484375 -0.65625 1.328125 -1.03125q0.859375 -0.390625 1.921875 -0.390625q1.515625 0 2.375 0.671875q0.875 0.65625 1.234375 1.75zm9.752258 0l-1.40625 0.390625q-0.125 -0.34375 -0.390625 -0.671875q-0.25 -0.34375 -0.6875 -0.5625q-0.4375 -0.21875 -1.125 -0.21875q-0.9375 0 -1.5625 0.421875q-0.609375 0.421875 -0.609375 1.078125q0 0.59375 0.421875 0.9375q0.421875 0.328125 1.328125 0.546875l1.515625 0.375q1.359375 0.328125 2.03125 1.015625q0.671875 0.671875 0.671875 1.75q0 0.859375 -0.5 1.5625q-0.5 0.6875 -1.40625 1.09375q-0.890625 0.390625 -2.078125 0.390625q-1.546875 0 -2.578125 -0.671875q-1.015625 -0.6875 -1.28125 -1.984375l1.484375 -0.375q0.203125 0.828125 0.796875 1.234375q0.59375 0.40625 1.5625 0.40625q1.09375 0 1.734375 -0.453125q0.640625 -0.46875 0.640625 -1.125q0 -0.53125 -0.375 -0.890625q-0.359375 -0.375 -1.125 -0.546875l-1.703125 -0.390625q-1.390625 -0.34375 -2.046875 -1.03125q-0.65625 -0.703125 -0.65625 -1.765625q0 -0.859375 0.484375 -1.515625q0.484375 -0.65625 1.328125 -1.03125q0.859375 -0.390625 1.921875 -0.390625q1.515625 0 2.375 0.671875q0.875 0.65625 1.234375 1.75zm2.5491333 7.890625l0 -10.171875l1.5625 0l0 10.171875l-1.5625 0zm0.78125 -11.875q-0.453125 0 -0.78125 -0.3125q-0.328125 -0.3125 -0.328125 -0.75q0 -0.4375 0.328125 -0.75q0.328125 -0.3125 0.78125 -0.3125q0.46875 0 0.796875 0.3125q0.328125 0.3125 0.328125 0.75q0 0.4375 -0.328125 0.75q-0.328125 0.3125 -0.796875 0.3125zm5.206848 5.75l0 6.125l-1.5625 0l0 -10.171875l1.5 0l0 1.578125l0.140625 0q0.359375 -0.765625 1.078125 -1.234375q0.734375 -0.484375 1.890625 -0.484375q1.03125 0 1.796875 0.421875q0.78125 0.421875 1.203125 1.28125q0.4375 0.84375 0.4375 2.140625l0 6.46875l-1.5625 0l0 -6.359375q0 -1.203125 -0.625 -1.875q-0.625 -0.671875 -1.703125 -0.671875q-0.75 0 -1.34375 0.328125q-0.578125 0.328125 -0.921875 0.953125q-0.328125 0.609375 -0.328125 1.5zm13.449524 10.15625q-1.125 0 -1.9375 -0.296875q-0.8125 -0.28125 -1.359375 -0.75q-0.53125 -0.46875 -0.859375 -1.0l1.25 -0.875q0.203125 0.28125 0.53125 0.640625q0.328125 0.359375 0.890625 0.625q0.578125 0.28125 1.484375 0.28125q1.234375 0 2.03125 -0.609375q0.8125 -0.59375 0.8125 -1.859375l0 -2.0625l-0.140625 0q-0.171875 0.265625 -0.484375 0.6875q-0.3125 0.40625 -0.90625 0.71875q-0.578125 0.3125 -1.5625 0.3125q-1.234375 0 -2.21875 -0.578125q-0.96875 -0.59375 -1.546875 -1.703125q-0.5625 -1.109375 -0.5625 -2.703125q0 -1.5625 0.546875 -2.71875q0.546875 -1.171875 1.53125 -1.8125q0.984375 -0.640625 2.265625 -0.640625q1.0 0 1.578125 0.328125q0.59375 0.328125 0.90625 0.75q0.3125 0.40625 0.484375 0.671875l0.15625 0l0 -1.609375l1.515625 0l0 10.46875q0 1.3125 -0.59375 2.125q-0.59375 0.828125 -1.59375 1.21875q-1.0 0.390625 -2.21875 0.390625zm-0.046875 -5.59375q0.9375 0 1.578125 -0.421875q0.65625 -0.4375 1.0 -1.25q0.34375 -0.8125 0.34375 -1.9375q0 -1.09375 -0.34375 -1.9375q-0.328125 -0.84375 -0.984375 -1.3125q-0.640625 -0.484375 -1.59375 -0.484375q-1.0 0 -1.65625 0.515625q-0.65625 0.5 -0.984375 1.34375q-0.328125 0.84375 -0.328125 1.875q0 1.0625 0.328125 1.875q0.34375 0.8125 1.0 1.28125q0.65625 0.453125 1.640625 0.453125z" fill-rule="nonzero"/><path fill="#d5a6bd" d="m608.3635 417.00525l177.19684 0l0 84.8504l-177.19684 0z" fill-rule="evenodd"/><path stroke="#626a6e" stroke-width="1.0" stroke-linejoin="round" stroke-linecap="butt" d="m608.3635 417.00525l177.19684 0l0 84.8504l-177.19684 0z" fill-rule="evenodd"/><path fill="#000000" d="m626.0127 467.97046l0 -17.1875l2.265625 0l0 15.15625l8.46875 0l0 2.03125l-10.734375 0zm12.378906 -6.21875q0 -3.46875 1.921875 -5.125q1.609375 -1.390625 3.921875 -1.390625q2.5625 0 4.1875 1.6875q1.625 1.6875 1.625 4.640625q0 2.40625 -0.71875 3.78125q-0.71875 1.375 -2.09375 2.140625q-1.375 0.765625 -3.0 0.765625q-2.625 0 -4.234375 -1.671875q-1.609375 -1.6875 -1.609375 -4.828125zm2.171875 0q0 2.390625 1.03125 3.578125q1.046875 1.1875 2.640625 1.1875q1.5625 0 2.609375 -1.1875q1.046875 -1.203125 1.046875 -3.65625q0 -2.3125 -1.0625 -3.5q-1.046875 -1.1875 -2.59375 -1.1875q-1.59375 0 -2.640625 1.1875q-1.03125 1.1875 -1.03125 3.578125zm11.582031 7.25l2.046875 0.3125q0.125 0.9375 0.71875 1.375q0.78125 0.59375 2.140625 0.59375q1.46875 0 2.265625 -0.59375q0.796875 -0.578125 1.078125 -1.640625q0.15625 -0.640625 0.140625 -2.703125q-1.375 1.625 -3.4375 1.625q-2.5625 0 -3.96875 -1.84375q-1.40625 -1.859375 -1.40625 -4.453125q0 -1.78125 0.640625 -3.28125q0.640625 -1.515625 1.859375 -2.328125q1.234375 -0.828125 2.890625 -0.828125q2.203125 0 3.625 1.78125l0 -1.5l1.953125 0l0 10.765625q0 2.90625 -0.59375 4.109375q-0.59375 1.21875 -1.875 1.921875q-1.28125 0.703125 -3.15625 0.703125q-2.234375 0 -3.609375 -1.0q-1.359375 -1.0 -1.3125 -3.015625zm1.734375 -7.484375q0 2.453125 0.96875 3.578125q0.984375 1.125 2.453125 1.125q1.453125 0 2.4375 -1.109375q0.984375 -1.125 0.984375 -3.515625q0 -2.28125 -1.015625 -3.4375q-1.015625 -1.171875 -2.453125 -1.171875q-1.40625 0 -2.390625 1.140625q-0.984375 1.140625 -0.984375 3.390625zm12.003906 -8.296875l0 -2.4375l2.109375 0l0 2.4375l-2.109375 0zm0 14.75l0 -12.453125l2.109375 0l0 12.453125l-2.109375 0zm9.925781 -1.890625l0.3125 1.859375q-0.890625 0.203125 -1.59375 0.203125q-1.15625 0 -1.796875 -0.359375q-0.625 -0.375 -0.890625 -0.96875q-0.25 -0.59375 -0.25 -2.484375l0 -7.171875l-1.546875 0l0 -1.640625l1.546875 0l0 -3.078125l2.09375 -1.265625l0 4.34375l2.125 0l0 1.640625l-2.125 0l0 7.28125q0 0.90625 0.109375 1.171875q0.125 0.25 0.375 0.40625q0.25 0.140625 0.71875 0.140625q0.34375 0 0.921875 -0.078125zm0.48046875 2.1875l4.984375 -17.765625l1.6875 0l-4.96875 17.765625l-1.703125 0zm16.558594 -7.03125l0 -2.015625l7.28125 -0.015625l0 6.375q-1.671875 1.328125 -3.453125 2.015625q-1.78125 0.671875 -3.65625 0.671875q-2.53125 0 -4.609375 -1.078125q-2.0625 -1.09375 -3.125 -3.140625q-1.046875 -2.0625 -1.046875 -4.59375q0 -2.5 1.046875 -4.671875q1.046875 -2.171875 3.015625 -3.21875q1.96875 -1.0625 4.53125 -1.0625q1.875 0 3.375 0.609375q1.5 0.59375 2.359375 1.671875q0.859375 1.078125 1.296875 2.8125l-2.046875 0.5625q-0.390625 -1.3125 -0.96875 -2.0625q-0.5625 -0.75 -1.640625 -1.203125q-1.0625 -0.453125 -2.359375 -0.453125q-1.5625 0 -2.703125 0.484375q-1.125 0.46875 -1.828125 1.25q-0.6875 0.765625 -1.078125 1.6875q-0.65625 1.59375 -0.65625 3.453125q0 2.296875 0.78125 3.84375q0.796875 1.546875 2.3125 2.296875q1.515625 0.75 3.203125 0.75q1.484375 0 2.890625 -0.5625q1.40625 -0.5625 2.125 -1.21875l0 -3.1875l-5.046875 0zm10.339844 6.734375l0 -12.453125l1.890625 0l0 1.890625q0.734375 -1.328125 1.34375 -1.75q0.625 -0.421875 1.359375 -0.421875q1.0625 0 2.171875 0.6875l-0.734375 1.953125q-0.765625 -0.453125 -1.546875 -0.453125q-0.6875 0 -1.25 0.421875q-0.546875 0.40625 -0.78125 1.140625q-0.34375 1.125 -0.34375 2.46875l0 6.515625l-2.109375 0zm16.132812 -1.53125q-1.171875 0.984375 -2.265625 1.40625q-1.078125 0.40625 -2.3125 0.40625q-2.046875 0 -3.15625 -1.0q-1.09375 -1.0 -1.09375 -2.5625q0 -0.921875 0.40625 -1.671875q0.421875 -0.75 1.09375 -1.203125q0.671875 -0.46875 1.515625 -0.703125q0.625 -0.15625 1.875 -0.3125q2.5625 -0.3125 3.765625 -0.734375q0.015625 -0.421875 0.015625 -0.546875q0 -1.28125 -0.609375 -1.8125q-0.796875 -0.71875 -2.390625 -0.71875q-1.5 0 -2.203125 0.53125q-0.703125 0.515625 -1.046875 1.84375l-2.0625 -0.28125q0.28125 -1.328125 0.921875 -2.140625q0.640625 -0.8125 1.859375 -1.25q1.21875 -0.453125 2.828125 -0.453125q1.59375 0 2.59375 0.375q1.0 0.375 1.46875 0.953125q0.46875 0.5625 0.65625 1.4375q0.09375 0.53125 0.09375 1.9375l0 2.8125q0 2.9375 0.140625 3.71875q0.140625 0.78125 0.53125 1.5l-2.203125 0q-0.328125 -0.65625 -0.421875 -1.53125zm-0.171875 -4.71875q-1.15625 0.46875 -3.453125 0.796875q-1.296875 0.1875 -1.84375 0.421875q-0.53125 0.234375 -0.828125 0.6875q-0.28125 0.453125 -0.28125 1.0q0 0.84375 0.625 1.40625q0.640625 0.5625 1.875 0.5625q1.21875 0 2.171875 -0.53125q0.953125 -0.53125 1.390625 -1.453125q0.34375 -0.71875 0.34375 -2.109375l0 -0.78125zm5.9101562 6.25l0 -10.8125l-1.875 0l0 -1.640625l1.875 0l0 -1.3125q0 -1.265625 0.21875 -1.875q0.296875 -0.8125 1.0625 -1.3125q0.78125 -0.515625 2.15625 -0.515625q0.890625 0 1.96875 0.203125l-0.3125 1.84375q-0.65625 -0.125 -1.25 -0.125q-0.953125 0 -1.359375 0.421875q-0.390625 0.40625 -0.390625 1.53125l0 1.140625l2.421875 0l0 1.640625l-2.421875 0l0 10.8125l-2.09375 0zm14.277344 -1.53125q-1.171875 0.984375 -2.265625 1.40625q-1.078125 0.40625 -2.3125 0.40625q-2.046875 0 -3.15625 -1.0q-1.09375 -1.0 -1.09375 -2.5625q0 -0.921875 0.40625 -1.671875q0.421875 -0.75 1.09375 -1.203125q0.671875 -0.46875 1.515625 -0.703125q0.625 -0.15625 1.875 -0.3125q2.5625 -0.3125 3.765625 -0.734375q0.015625 -0.421875 0.015625 -0.546875q0 -1.28125 -0.609375 -1.8125q-0.796875 -0.71875 -2.390625 -0.71875q-1.5 0 -2.203125 0.53125q-0.703125 0.515625 -1.046875 1.84375l-2.0625 -0.28125q0.28125 -1.328125 0.921875 -2.140625q0.640625 -0.8125 1.859375 -1.25q1.21875 -0.453125 2.828125 -0.453125q1.59375 0 2.59375 0.375q1.0 0.375 1.46875 0.953125q0.46875 0.5625 0.65625 1.4375q0.09375 0.53125 0.09375 1.9375l0 2.8125q0 2.9375 0.140625 3.71875q0.140625 0.78125 0.53125 1.5l-2.203125 0q-0.328125 -0.65625 -0.421875 -1.53125zm-0.171875 -4.71875q-1.15625 0.46875 -3.453125 0.796875q-1.296875 0.1875 -1.84375 0.421875q-0.53125 0.234375 -0.828125 0.6875q-0.28125 0.453125 -0.28125 1.0q0 0.84375 0.625 1.40625q0.640625 0.5625 1.875 0.5625q1.21875 0 2.171875 -0.53125q0.953125 -0.53125 1.390625 -1.453125q0.34375 -0.71875 0.34375 -2.109375l0 -0.78125zm5.3945312 6.25l0 -12.453125l1.90625 0l0 1.78125q1.375 -2.0625 3.953125 -2.0625q1.125 0 2.0625 0.40625q0.953125 0.40625 1.421875 1.0625q0.46875 0.65625 0.65625 1.5625q0.125 0.578125 0.125 2.046875l0 7.65625l-2.109375 0l0 -7.578125q0 -1.28125 -0.25 -1.921875q-0.25 -0.640625 -0.875 -1.015625q-0.625 -0.390625 -1.46875 -0.390625q-1.34375 0 -2.328125 0.859375q-0.984375 0.859375 -0.984375 3.25l0 6.796875l-2.109375 0zm21.472656 -1.53125q-1.171875 0.984375 -2.265625 1.40625q-1.078125 0.40625 -2.3125 0.40625q-2.046875 0 -3.15625 -1.0q-1.09375 -1.0 -1.09375 -2.5625q0 -0.921875 0.40625 -1.671875q0.421875 -0.75 1.09375 -1.203125q0.671875 -0.46875 1.515625 -0.703125q0.625 -0.15625 1.875 -0.3125q2.5625 -0.3125 3.765625 -0.734375q0.015625 -0.421875 0.015625 -0.546875q0 -1.28125 -0.609375 -1.8125q-0.796875 -0.71875 -2.390625 -0.71875q-1.5 0 -2.203125 0.53125q-0.703125 0.515625 -1.046875 1.84375l-2.0625 -0.28125q0.28125 -1.328125 0.921875 -2.140625q0.640625 -0.8125 1.859375 -1.25q1.21875 -0.453125 2.828125 -0.453125q1.59375 0 2.59375 0.375q1.0 0.375 1.46875 0.953125q0.46875 0.5625 0.65625 1.4375q0.09375 0.53125 0.09375 1.9375l0 2.8125q0 2.9375 0.140625 3.71875q0.140625 0.78125 0.53125 1.5l-2.203125 0q-0.328125 -0.65625 -0.421875 -1.53125zm-0.171875 -4.71875q-1.15625 0.46875 -3.453125 0.796875q-1.296875 0.1875 -1.84375 0.421875q-0.53125 0.234375 -0.828125 0.6875q-0.28125 0.453125 -0.28125 1.0q0 0.84375 0.625 1.40625q0.640625 0.5625 1.875 0.5625q1.21875 0 2.171875 -0.53125q0.953125 -0.53125 1.390625 -1.453125q0.34375 -0.71875 0.34375 -2.109375l0 -0.78125z" fill-rule="nonzero"/></g></svg>